<?xml version="1.0" encoding="utf-8"?>
<!-- Generator: Adobe Illustrator 15.1.0, SVG Export Plug-In . SVG Version: 6.00 Build 0)  -->
<!DOCTYPE svg PUBLIC "-//W3C//DTD SVG 1.1//EN" "http://www.w3.org/Graphics/SVG/1.1/DTD/svg11.dtd">
<svg version="1.1" xmlns="http://www.w3.org/2000/svg" xmlns:xlink="http://www.w3.org/1999/xlink" x="0px" y="0px" width="105px"
	 height="109.5px" viewBox="0 0 105 109.5" enable-background="new 0 0 105 109.5" xml:space="preserve">
<g id="Layer_1">
</g>
<g id="Isolation_Mode">
	<g display="none" opacity="0.3">
		<g display="inline">
			<defs>
				<rect id="SVGID_1_" x="10.844" y="9.694" width="84.655" height="89.225"/>
			</defs>
			<clipPath id="SVGID_2_">
				<use xlink:href="#SVGID_1_"  overflow="visible"/>
			</clipPath>
			<rect x="17.866" y="85.096" clip-path="url(#SVGID_2_)" width="2.542" height="13.584"/>
			<path clip-path="url(#SVGID_2_)" d="M22.618,89.173h2.247v1.811l1.238-1.726c0.745-0.276,1.551-0.312,1.916-0.312
				c2.735,0,3.28,1.736,3.28,3.711v6.022h-2.254v-5.399c0-1.445-0.271-2.592-2.021-2.592c-0.698,0-1.509,0.26-2.16,0.724v7.268
				h-2.247V89.173z"/>
			<path clip-path="url(#SVGID_2_)" d="M37.336,98.781c-0.267,0.056-0.616,0.132-1.134,0.132c-0.542,0-1.306-0.076-1.905-0.722
				c-0.573-0.653-0.573-1.332-0.562-2.177l0.041-5.218h-1.232l1.022-1.631h0.255v-1.788l2.229-0.704v2.492h2.137v1.631h-2.18
				l-0.039,4.149c0,1.037,0,1.449,0.235,1.794c0.181,0.245,0.542,0.523,1.169,0.523c0.425,0,0.872-0.123,1.27-0.26L37.336,98.781z"
				/>
			<path clip-path="url(#SVGID_2_)" d="M46.3,98.601c-0.744,0.213-1.52,0.312-2.288,0.312c-3.421,0-5.156-2.072-5.156-4.938
				c0-2.948,1.804-5.041,4.587-5.041c0.672,0,1.338,0.111,1.956,0.392c2.293,1.059,2.319,3.584,2.326,4.742h-6.442
				c0.053,0.616,0.136,1.623,0.925,2.375c0.649,0.62,1.577,0.835,2.477,0.835c1.295,0,2.329-0.419,2.719-0.585L46.3,98.601z
				 M45.419,92.643c-0.021-0.356-0.06-1.065-0.556-1.604c-0.347-0.356-0.827-0.575-1.388-0.575c-1.173,0-1.926,0.928-2.152,2.179
				H45.419z"/>
			<path clip-path="url(#SVGID_2_)" d="M51.376,98.68H49.07v-9.507h2.306v1.662l1.113-1.544c0.379-0.159,0.954-0.308,1.763-0.308
				c0.424,0,0.63,0.063,0.9,0.128v2.2c-0.503-0.252-1.052-0.534-1.845-0.534c-0.439,0-1.169,0.088-1.932,0.57V98.68z"/>
			<path clip-path="url(#SVGID_2_)" d="M60.561,98.781c-0.274,0.056-0.615,0.132-1.137,0.132c-0.533,0-1.305-0.076-1.898-0.722
				c-0.577-0.653-0.577-1.332-0.567-2.177l0.05-5.218h-1.234l1.014-1.631h0.262v-1.788l2.231-0.704v2.492h2.125v1.631h-2.171
				l-0.039,4.149c0,1.037,0,1.449,0.229,1.794c0.176,0.245,0.54,0.523,1.184,0.523c0.417,0,0.857-0.123,1.271-0.26L60.561,98.781z"
				/>
			<path clip-path="url(#SVGID_2_)" d="M69.52,98.601c-0.74,0.213-1.511,0.312-2.28,0.312c-3.426,0-5.155-2.072-5.155-4.938
				c0-2.948,1.813-5.041,4.581-5.041c0.672,0,1.344,0.111,1.96,0.392c2.291,1.059,2.305,3.584,2.325,4.742h-6.448
				c0.058,0.616,0.145,1.623,0.926,2.375c0.651,0.62,1.587,0.835,2.488,0.835c1.278,0,2.321-0.419,2.701-0.585L69.52,98.601z
				 M68.644,92.643c-0.019-0.356-0.056-1.065-0.557-1.604c-0.347-0.356-0.824-0.575-1.392-0.575c-1.169,0-1.921,0.928-2.146,2.179
				H68.644z"/>
			<polygon clip-path="url(#SVGID_2_)" points="81.599,98.68 78.806,98.68 74.564,93.658 74.564,98.68 72.303,98.68 72.303,85.098 
				74.564,85.098 74.564,93.22 78.424,89.173 81.055,89.173 77.065,93.392 			"/>
			<rect x="17.866" y="78.209" clip-path="url(#SVGID_2_)" width="63.732" height="1.577"/>
			<path clip-path="url(#SVGID_2_)" d="M15.771,60.651c-0.297,0.386-0.736,0.573-1.304,0.573c-0.564,0-1.026-0.217-1.383-0.662
				c-0.359-0.451-0.538-1.121-0.538-2.01c0-0.895,0.169-1.596,0.514-2.086c0.348-0.491,0.815-0.735,1.409-0.735
				c0.592,0,1.021,0.179,1.318,0.522c0.169,0.2,0.312,0.486,0.412,0.872h1.666c-0.027-0.503-0.207-1.006-0.549-1.501
				c-0.616-0.874-1.588-1.318-2.915-1.318c-0.994,0-1.811,0.331-2.453,0.98c-0.738,0.748-1.105,1.839-1.105,3.216
				c0,1.297,0.324,2.31,0.969,3.052c0.649,0.744,1.542,1.108,2.681,1.108c0.924,0,1.668-0.27,2.257-0.818
				c0.584-0.548,0.955-1.257,1.1-2.125h-1.673C16.074,60.139,15.932,60.441,15.771,60.651"/>
			<path clip-path="url(#SVGID_2_)" d="M86.316,59.451c0,0.569-0.062,0.949-0.192,1.211c-0.193,0.437-0.641,0.674-1.312,0.674
				c-0.683,0-1.113-0.237-1.315-0.674c-0.132-0.262-0.194-0.642-0.194-1.211v-4.908h-1.703v4.908c0,0.864,0.122,1.526,0.384,2.006
				c0.503,0.868,1.447,1.312,2.829,1.312c1.385,0,2.335-0.443,2.817-1.312c0.267-0.479,0.393-1.142,0.393-2.006v-4.908h-1.705
				V59.451z"/>
			<path clip-path="url(#SVGID_2_)" d="M94.787,58.573c-0.305-0.245-0.775-0.438-1.375-0.583l-1.392-0.33
				c-0.536-0.12-0.895-0.231-1.06-0.34c-0.258-0.131-0.392-0.343-0.392-0.64c0-0.312,0.14-0.553,0.401-0.724
				c0.256-0.176,0.612-0.26,1.04-0.26c0.389,0,0.726,0.061,0.983,0.191c0.392,0.213,0.611,0.557,0.637,1.037h1.616
				c-0.026-0.857-0.351-1.507-0.946-1.955c-0.598-0.442-1.332-0.665-2.175-0.665c-1.019,0-1.788,0.237-2.305,0.716
				c-0.53,0.478-0.792,1.067-0.792,1.787c0,0.79,0.27,1.36,0.818,1.738c0.312,0.216,0.891,0.418,1.735,0.609l0.854,0.187
				c0.498,0.108,0.865,0.238,1.101,0.377c0.239,0.152,0.351,0.346,0.351,0.612c0,0.455-0.233,0.767-0.71,0.926
				c-0.243,0.088-0.57,0.136-0.973,0.136c-0.668,0-1.132-0.171-1.404-0.497c-0.152-0.177-0.258-0.455-0.305-0.818h-1.604
				c0,0.829,0.297,1.497,0.895,1.969c0.605,0.479,1.438,0.722,2.478,0.722c1.027,0,1.829-0.253,2.39-0.738
				c0.565-0.48,0.844-1.088,0.844-1.816C95.499,59.497,95.262,58.948,94.787,58.573"/>
			<path clip-path="url(#SVGID_2_)" d="M49.732,9.699c-17.596,0-31.866,14.266-31.866,31.869c0,12.951,7.734,24.097,18.83,29.073
				l1.742-3.892c-3.075-1.371-5.856-3.321-8.229-5.67c-4.991-5.012-8.076-11.899-8.076-19.512c0-7.63,3.085-14.525,8.076-19.53
				c5.012-4.989,11.892-8.077,19.523-8.077c7.624,0,14.512,3.088,19.516,8.077c4.995,5.005,8.075,11.9,8.075,19.53
				c0,7.612-3.08,14.5-8.075,19.512c-2.367,2.349-5.144,4.299-8.23,5.67l1.736,3.892c11.109-4.977,18.845-16.122,18.845-29.073
				C81.591,23.964,67.332,9.699,49.732,9.699"/>
			<path clip-path="url(#SVGID_2_)" d="M72.388,39.457h-5.93c0.109,0.779,0.165,1.564,0.165,2.366c0,4.062-1.422,7.786-3.797,10.707
				L62.81,23.058c-1.666-1.189-3.362-2.029-5.313-2.743v43.002c8.758-3.212,15.009-11.626,15.009-21.494
				C72.505,41.029,72.46,40.236,72.388,39.457"/>
			<path clip-path="url(#SVGID_2_)" d="M43.531,19.741v6.186c1.15-0.444,2.362-0.769,3.622-0.941v39.598
				c0.804,0.097,1.633,0.134,2.447,0.134c1.014,0,2.012-0.06,2.989-0.2V25.065c1.301,0.231,2.557,0.609,3.737,1.13v-6.271
				c-2.129-0.649-4.387-1.002-6.727-1.002C47.506,18.921,45.465,19.208,43.531,19.741"/>
			<path clip-path="url(#SVGID_2_)" d="M26.71,41.822c0,10.112,6.552,18.691,15.644,21.724v-6.331
				c-4.999-2.361-8.673-7.09-9.556-12.737h9.238V38.82h-9.185c0.983-5.494,4.604-10.077,9.502-12.39v-6.334
				C33.262,23.133,26.71,31.704,26.71,41.822"/>
			<path clip-path="url(#SVGID_2_)" d="M68.116,37.839c-0.107,0.093-0.228,0.144-0.359,0.144c-0.199,0-0.35-0.08-0.468-0.218
				c-0.115-0.138-0.173-0.375-0.173-0.701c0-0.311,0.058-0.535,0.173-0.664c0.118-0.138,0.289-0.217,0.477-0.217
				c0.14,0,0.262,0.041,0.358,0.126c0.097,0.074,0.161,0.176,0.194,0.312l0.518-0.126c-0.057-0.201-0.151-0.37-0.269-0.477
				c-0.202-0.189-0.453-0.285-0.777-0.285c-0.362,0-0.664,0.123-0.882,0.355c-0.226,0.256-0.334,0.585-0.334,1.013
				c0,0.401,0.108,0.733,0.334,0.971c0.218,0.231,0.499,0.359,0.854,0.359c0.278,0,0.509-0.075,0.687-0.213
				c0.189-0.146,0.315-0.355,0.392-0.637l-0.506-0.172C68.285,37.604,68.211,37.747,68.116,37.839"/>
			<polygon clip-path="url(#SVGID_2_)" points="70.94,35.786 70.466,37.544 69.996,35.786 69.217,35.786 69.217,38.376 
				69.691,38.376 69.691,36.33 70.208,38.376 70.712,38.376 71.231,36.33 71.231,38.376 71.722,38.376 71.722,35.786 			"/>
			<polygon clip-path="url(#SVGID_2_)" points="40.428,67.583 39.36,67.213 38.006,71.201 38.106,71.236 41.218,72.295 
				41.511,71.44 39.377,70.715 			"/>
			<polygon clip-path="url(#SVGID_2_)" points="41.991,72.46 42.094,72.481 43.092,72.706 44.053,68.568 42.951,68.306 			"/>
			<path clip-path="url(#SVGID_2_)" d="M46.38,68.876c-0.14-0.019-0.276-0.019-0.401-0.019c-0.194,0-0.382,0.005-0.541,0.059
				c-0.268,0.062-0.496,0.179-0.661,0.37c-0.167,0.163-0.267,0.384-0.291,0.61c-0.006,0.046-0.006,0.079-0.006,0.12
				c0,0.312,0.121,0.588,0.358,0.824c0.194,0.19,0.534,0.363,1.006,0.54c0.374,0.132,0.601,0.217,0.693,0.252
				c0.144,0.066,0.229,0.136,0.26,0.178c0.033,0.045,0.045,0.08,0.045,0.14v0.033c-0.012,0.117-0.072,0.198-0.214,0.278
				c-0.091,0.052-0.219,0.08-0.388,0.08c-0.07,0-0.143,0-0.215-0.006c-0.256-0.033-0.441-0.118-0.564-0.233
				c-0.134-0.111-0.206-0.297-0.227-0.542l-0.007-0.111l-1.103-0.029v0.112c0.006,0.479,0.156,0.872,0.459,1.168
				c0.289,0.293,0.74,0.462,1.328,0.536c0.157,0.013,0.312,0.04,0.456,0.04c0.208,0,0.397-0.031,0.577-0.079
				c0.282-0.06,0.516-0.204,0.707-0.392c0.18-0.2,0.286-0.438,0.317-0.683c0.013-0.08,0.013-0.132,0.013-0.191
				c0-0.204-0.044-0.371-0.13-0.54c-0.104-0.204-0.276-0.369-0.485-0.503c-0.214-0.132-0.529-0.271-0.958-0.419
				c-0.429-0.142-0.693-0.266-0.757-0.342c-0.063-0.046-0.072-0.099-0.072-0.145v-0.013c0.009-0.071,0.033-0.113,0.104-0.146
				c0.101-0.046,0.221-0.081,0.371-0.081c0.07,0,0.126,0.006,0.204,0.019c0.245,0.027,0.401,0.087,0.496,0.18
				c0.087,0.074,0.135,0.198,0.157,0.394l0.004,0.091l1.132,0.093l0.002-0.12v-0.111c0-0.338-0.125-0.665-0.381-0.909
				C47.389,69.102,46.949,68.947,46.38,68.876"/>
			<polygon clip-path="url(#SVGID_2_)" points="52.204,69.095 48.404,69.188 48.411,70.089 49.753,70.054 49.829,73.394 
				49.929,73.394 50.953,73.375 50.894,70.03 52.229,70.002 			"/>
			<polygon clip-path="url(#SVGID_2_)" points="54.113,72.188 53.979,71.329 56.212,70.959 56.065,70.083 53.827,70.433 
				53.726,69.778 56.125,69.379 55.981,68.5 52.452,69.065 53.132,73.262 53.252,73.237 56.744,72.674 56.598,71.792 			"/>
			<path clip-path="url(#SVGID_2_)" d="M60.964,69.19c-0.115-0.364-0.268-0.664-0.449-0.896c-0.193-0.229-0.404-0.404-0.657-0.51
				c-0.225-0.106-0.45-0.16-0.708-0.16h-0.106c-0.219,0.015-0.51,0.086-0.868,0.21l-1.69,0.553l0.041,0.099l1.286,3.93l1.729-0.559
				c0.331-0.109,0.583-0.23,0.769-0.343c0.237-0.177,0.425-0.353,0.544-0.554c0.152-0.258,0.235-0.532,0.25-0.872V69.99
				C61.103,69.745,61.057,69.479,60.964,69.19 M58.612,71.201l-0.77-2.312l0.278-0.101c0.354-0.104,0.598-0.17,0.709-0.184
				c0.048-0.007,0.079-0.007,0.126-0.007c0.109,0,0.193,0.021,0.278,0.042c0.104,0.049,0.219,0.144,0.312,0.264
				c0.105,0.119,0.206,0.33,0.303,0.614c0.085,0.293,0.128,0.499,0.128,0.681v0.01c0,0.178-0.031,0.312-0.082,0.396
				c-0.058,0.075-0.143,0.153-0.262,0.237c-0.087,0.05-0.252,0.111-0.487,0.192L58.612,71.201z"/>
		</g>
	</g>
	<g opacity="0.3">
		<g>
			<defs>
				<rect id="SVGID_3_" x="8.314" y="9.803" width="89.745" height="89.755"/>
			</defs>
			<clipPath id="SVGID_4_">
				<use xlink:href="#SVGID_3_"  overflow="visible"/>
			</clipPath>
			<path clip-path="url(#SVGID_4_)" d="M98.06,54.681c0,24.782-20.091,44.872-44.872,44.872c-24.782,0-44.871-20.09-44.871-44.872
				c0-24.781,20.089-44.872,44.871-44.872C77.969,9.809,98.06,29.9,98.06,54.681"/>
			<path clip-path="url(#SVGID_4_)" fill="#FFFFFF" d="M73.117,60.918c0.427-0.2,5.639-1.806,4.439-4.914
				c-0.838-2.188-2.458,0.401-3.586-0.441c-0.362-0.27-0.587-0.483,0.996-2.022c1.588-1.541,2.069-2.635,2.229-3.582
				c0.156-0.948,0.154-1.67-0.497-2.038c-0.651-0.363-1.513,0.602-1.771-0.4c-0.157-0.535,0.047-0.837,0.049-1.797
				c0.003-1.05-1.071-3.671-3.574-2.787c-1.618,0.571-0.761,3.361-1.176,3.889c-0.429,0.541-0.793-1.113-1.702-1.374
				c-1.05-0.298-1.781,0.674-1.771,1.574c0.007,0.9,0.594,2.576,0.788,3.225c0.107,0.514,0.388,1.915,0.212,2.325
				c-0.268,0.621-0.494,0.418-1.091-0.371c-0.529-0.696-0.251-0.405-1.183-1.523c-1.159-1.429-1.864,0.551-1.948,1.876
				c-0.083,1.324,0.923,5.934,0.906,6.544c-0.071,2.765-1.607-0.404-1.657-0.479c-1.008-1.539-2.948-0.818-2.342,0.831
				c1.104,3.006,2.097,5.602,1.052,8.177c-0.141,0.347-0.328,0.948-0.586,1.546c8.517-7.929,10.858-18.913,10.862-18.926
				c0.031-0.115,0.233-0.223,0.337-0.188c0.108,0.034,0.158,0.245,0.127,0.361c-0.006,0.017-2.783,16.329-17.633,24.66
				c-0.328,0.179-0.367-0.017-0.431-0.312c0.07-2.585,0.178-4.34,1.138-4.909c7.997-4.746,5.399-6.933,3.742-7.255
				c-1.659-0.325-2.606-3.036-0.319-4.214c4.026-2.266,6.084-10.35,1.084-8.583c-0.457,0.038-3.744,1.749-0.845-3.209
				c2.743-4.959,1.898-9.377-0.946-7.454c-0.747,0.504-2.859,2.74-2.436-0.494c0.755-4.908-0.462-6.659-1.902-6.98
				c0,0-0.15-0.024-0.271-0.037l-0.13,0.006v-0.015c-0.088-0.007-0.404,0.046-0.404,0.046c-1.442,0.321-2.657,2.072-1.902,6.98
				c0.423,3.234-1.688,0.998-2.435,0.494c-2.844-1.923-3.688,2.495-0.946,7.454c2.898,4.958-0.39,3.247-0.846,3.209
				c-5.001-1.767-2.941,6.317,1.085,8.583c2.288,1.178,1.34,3.889-0.318,4.214c-1.657,0.322-4.257,2.509,3.74,7.255
				c0.959,0.571,1.076,2.338,1.146,4.932c-0.064,0.286-0.113,0.464-0.438,0.289c-14.848-8.331-17.625-24.644-17.629-24.66
				c-0.031-0.116,0.05-0.327,0.154-0.361c0.104-0.034,0.271,0.149,0.302,0.265c0.004,0.011,2.352,10.921,10.868,18.85
				c-0.259-0.598-0.445-1.199-0.587-1.546c-1.045-2.575-0.054-5.171,1.052-8.177c0.607-1.649-1.334-2.37-2.341-0.831
				c-0.051,0.074-1.587,3.243-1.657,0.479c-0.017-0.61,0.989-5.22,0.905-6.544c-0.085-1.325-0.788-3.305-1.946-1.876
				c-0.934,1.118-0.655,0.827-1.184,1.523c-0.596,0.789-0.824,0.992-1.091,0.371c-0.175-0.41,0.102-1.812,0.211-2.325
				c0.195-0.648,0.781-2.324,0.789-3.225c0.009-0.9-0.724-1.872-1.771-1.574c-0.911,0.261-1.274,1.915-1.703,1.374
				c-0.416-0.527,0.443-3.317-1.177-3.889c-2.503-0.884-3.577,1.737-3.573,2.787c0.002,0.96,0.208,1.262,0.048,1.797
				c-0.26,1.002-1.118,0.037-1.77,0.4c-0.651,0.368-0.653,1.09-0.496,2.038c0.158,0.947,0.641,2.041,2.226,3.582
				c1.586,1.539,1.359,1.753,0.998,2.022c-1.128,0.843-2.746-1.747-3.589,0.441c-1.196,3.108,4.016,4.714,4.442,4.914
				c1.117,0.534,1.729,1.753,0.206,1.394c-0.616-0.144-1.554-0.589-2.288,0.229c-1.942,2.166,3.119,5.938,6.481,6.634
				c3.361,0.693,6.369,1.979,7.637,2.557c1.253,0.567,6.597,4.234,6.968,5.719c0.094,0.438,0.324,0.761,0.838,0.761
				c0.515,0,0.735-0.288,0.83-0.733c0.341-1.452,5.705-5.177,6.961-5.746c1.268-0.577,4.275-1.863,7.638-2.557
				c3.36-0.696,8.422-4.468,6.481-6.634c-0.735-0.818-1.674-0.373-2.288-0.229C71.386,62.671,72,61.453,73.117,60.918
				 M53.583,76.363c0,0-0.037,0.301-0.275,0.292c-0.237-0.008-0.221-0.292-0.221-0.292s-0.172-10.448-0.172-17.603
				c0-7.152,0.172-14.946,0.172-14.946s0.062-0.296,0.264-0.296c0.198,0,0.232,0.296,0.232,0.296s0.172,7.794,0.172,14.946
				C53.755,65.915,53.583,76.363,53.583,76.363"/>
			<path clip-path="url(#SVGID_4_)" fill="#FFFFFF" d="M53.188,12.455c-23.319,0-42.227,18.904-42.227,42.228
				c0,23.321,18.907,42.225,42.227,42.225c23.321,0,42.227-18.903,42.227-42.225C95.414,31.359,76.509,12.455,53.188,12.455
				 M91.235,51.524l0.026,1.167l-3.572,2.327c0,0-0.135,0.085-0.229,0.145c0.143-0.006,0.683-0.021,0.683-0.021l3.167-0.062
				l0.024,1.205l-6.149,0.127l-0.023-1.108l3.662-2.436c0,0,0.091-0.058,0.148-0.093c-0.143,0.004-0.679,0.019-0.679,0.019
				l-3.183,0.064l-0.023-1.209l5.967-0.121L91.235,51.524z M89.901,44.19l0.264,1.204l-3.433,0.753
				c-0.551,0.119-0.924,0.33-1.111,0.623c-0.142,0.22-0.175,0.492-0.104,0.812c0.076,0.348,0.222,0.588,0.444,0.729
				c0.276,0.178,0.683,0.209,1.206,0.093l3.491-0.765l0.264,1.204l-3.474,0.763c-1.691,0.37-2.807-0.261-3.141-1.778
				c-0.321-1.46,0.458-2.511,2.136-2.879l3.28-0.719L89.901,44.19z M88.202,39.42c0.274,0.631,0.295,1.282,0.06,1.89
				c-0.296,0.75-0.973,1.389-1.906,1.798c-0.932,0.408-1.859,0.471-2.608,0.178c-0.606-0.237-1.072-0.695-1.349-1.326
				c-0.275-0.626-0.294-1.277-0.058-1.881c0.293-0.751,0.97-1.389,1.903-1.797C85.979,37.521,87.571,37.981,88.202,39.42
				 M79.316,35.22c0.151-0.792,0.701-1.543,1.545-2.117c1.566-1.062,3.214-0.9,4.098,0.401c0.551,0.813,0.623,1.604,0.219,2.419
				L85.1,36.081l-1.152-0.511l0.072-0.167c0.216-0.494,0.195-0.799-0.083-1.209c-0.199-0.294-0.459-0.473-0.771-0.533
				c-0.451-0.086-1.006,0.081-1.598,0.484c-1.017,0.688-1.322,1.501-0.835,2.221c0.288,0.422,0.622,0.587,1.152,0.57l0.188-0.005
				l0.011,1.221l-0.172,0.013c-0.891,0.062-1.67-0.33-2.197-1.107C79.331,36.489,79.193,35.857,79.316,35.22 M78.171,25.829
				c0.737,0.631,1.022,1.396,0.849,2.275l-0.034,0.174l-1.235-0.194l0.026-0.178c0.077-0.525-0.026-0.813-0.408-1.143
				c-0.271-0.234-0.57-0.338-0.888-0.315c-0.462,0.037-0.953,0.342-1.419,0.886c-0.466,0.543-0.694,1.075-0.659,1.535
				c0.024,0.317,0.175,0.597,0.447,0.829c0.273,0.236,0.552,0.346,0.824,0.324c0.28-0.021,0.484-0.176,0.64-0.327
				c-0.187-0.164-0.695-0.6-0.695-0.6l0.781-0.911l1.662,1.429l-0.557,0.646c-0.508,0.595-1.117,0.933-1.757,0.982
				c-0.598,0.046-1.186-0.165-1.701-0.608c-0.52-0.444-0.82-1.022-0.87-1.666c-0.062-0.806,0.271-1.674,0.937-2.449
				c0.664-0.773,1.474-1.233,2.278-1.295C77.037,25.172,77.653,25.384,78.171,25.829 M69.994,20.442l1.015,0.578l0.167,4.26
				c0,0,0.002,0.161,0.002,0.271c0.136-0.239,0.338-0.597,0.338-0.597l1.568-2.753l1.048,0.6l-3.049,5.346l-0.961-0.549
				l-0.211-4.396c0,0-0.004-0.103-0.006-0.173c-0.124,0.223-0.332,0.591-0.332,0.591l-1.575,2.765l-1.055-0.599l2.96-5.187
				L69.994,20.442z M66.502,19.211l0.067-0.169l1.146,0.449l-2.247,5.728l-1.146-0.451L66.502,19.211z M59.898,17.346l0.043-0.176
				l1.713,0.408c1.829,0.438,2.653,1.816,2.204,3.69c-0.527,2.206-2.223,2.631-3.633,2.293l-1.717-0.41L59.898,17.346z
				 M53.54,16.783l0.009-0.181l1.232,0.07c0,0-0.264,4.591-0.28,4.929c0.319,0.017,2.882,0.163,2.882,0.163l-0.07,1.215l-4.11-0.234
				L53.54,16.783z M51.056,16.707l0.182-0.012l0.417,6.137l-1.228,0.085l-0.422-6.138L51.056,16.707z M44.139,17.727l0.732,3.437
				c0.208,0.972,0.688,1.384,1.429,1.226c0.484-0.107,1.101-0.393,0.831-1.649l-0.746-3.493l1.026-0.22l0.18-0.037l0.742,3.476
				c0.189,0.889,0.104,1.616-0.25,2.167c-0.319,0.488-0.837,0.812-1.542,0.963c-0.677,0.146-1.266,0.063-1.742-0.246
				c-0.555-0.359-0.934-1-1.128-1.904l-0.738-3.462L44.139,17.727z M38.665,19.54c0.543-0.23,1.056-0.264,1.48-0.091
				c0.384,0.154,0.687,0.473,0.877,0.921c0.086,0.199,0.129,0.399,0.129,0.591c0,0.236-0.144,0.448-0.266,0.663
				c0.484,0.025,1.045,0.265,1.338,0.956c0.132,0.309,0.198,0.604,0.198,0.88c0,0.21-0.039,0.414-0.115,0.604
				c-0.198,0.49-0.638,0.884-1.308,1.169l-2.282,0.973l-2.41-5.661L38.665,19.54z M28.487,25.774l4.021,1.411
				c0,0,0.152,0.057,0.257,0.096c-0.123-0.148-0.433-0.531-0.433-0.531l-1.983-2.47l0.8-0.642l0.141-0.115l3.854,4.799l-0.866,0.693
				l-4.164-1.417c0,0-0.096-0.037-0.163-0.06c0.084,0.102,0.425,0.525,0.425,0.525l1.995,2.482l-0.94,0.758l-3.853-4.799
				L28.487,25.774z M25.659,28.413l0.121-0.14l0.915,0.789c0,0-1.659,1.928-1.865,2.169c0.177,0.153,0.625,0.541,0.806,0.694
				c0.189-0.218,1.085-1.26,1.085-1.26l0.915,0.789c0,0-0.896,1.042-1.086,1.26c0.201,0.171,0.911,0.782,1.11,0.955
				c0.209-0.244,1.946-2.263,1.946-2.263l0.916,0.789l-2.751,3.195l-4.663-4.015L25.659,28.413z M15.649,48.186
				c0.163-0.955,0.674-1.596,1.516-1.9l0.163-0.059l0.474,1.157l-0.167,0.069c-0.49,0.205-0.685,0.441-0.769,0.939
				c-0.059,0.354,0.004,0.663,0.189,0.923c0.268,0.379,0.783,0.641,1.488,0.759c1.214,0.204,1.991-0.173,2.138-1.038
				c0.017-0.097,0.023-0.19,0.023-0.277c0-0.235-0.057-0.433-0.172-0.597c-0.163-0.227-0.399-0.324-0.614-0.381
				c-0.039,0.247-0.15,0.907-0.15,0.907l-1.184-0.198l0.365-2.161l0.841,0.141c0.771,0.131,1.375,0.477,1.748,1
				c0.347,0.489,0.471,1.102,0.357,1.771c-0.113,0.674-0.452,1.229-0.981,1.604c-0.656,0.467-1.573,0.631-2.579,0.461
				c-1.006-0.171-1.818-0.625-2.284-1.282c-0.291-0.408-0.439-0.882-0.439-1.385C15.612,48.493,15.625,48.34,15.649,48.186
				 M22.396,62.508c0.111,0.437-0.167,0.901-0.606,1.015c-0.445,0.111-0.911-0.167-1.022-0.604
				c-0.109-0.438,0.171-0.905,0.614-1.017C21.818,61.792,22.284,62.069,22.396,62.508 M21.431,54.983
				c0.008,0.451-0.369,0.84-0.821,0.851c-0.457,0.006-0.851-0.372-0.857-0.825c-0.008-0.452,0.373-0.839,0.829-0.85
				C21.034,54.153,21.424,54.53,21.431,54.983 M15.38,59.383c-0.093-0.773,0.099-1.46,0.589-2.105l0.109-0.146l0.983,0.755
				l-0.117,0.145c-0.301,0.379-0.408,0.771-0.351,1.271c0.037,0.293,0.134,0.51,0.28,0.623l0.351,0.091
				c0.239-0.027,0.399-0.124,0.585-1.215c0.188-1.076,0.46-2.053,1.666-2.197c0.545-0.066,1.011,0.047,1.38,0.336
				c0.445,0.349,0.722,0.932,0.82,1.735c0.103,0.848-0.161,1.687-0.728,2.303l-0.113,0.128l-0.953-0.769l0.12-0.143
				c0.342-0.401,0.517-0.95,0.459-1.437c-0.108-0.895-0.474-0.967-0.779-0.932c-0.292,0.037-0.461,0.234-0.637,1.266
				c-0.204,1.204-0.429,2.006-1.631,2.15c-0.464,0.058-0.896-0.06-1.249-0.336C15.738,60.573,15.458,60.032,15.38,59.383
				 M21.75,69.045l-3.313,1.243l-0.435-1.154l3.292-1.234c0.524-0.194,0.866-0.456,1.011-0.773c0.107-0.237,0.104-0.512-0.011-0.818
				c-0.177-0.468-0.548-1.031-1.754-0.58l-3.343,1.254l-0.435-1.152l3.33-1.251c1.622-0.608,2.817-0.143,3.36,1.312
				C23.98,67.29,23.358,68.442,21.75,69.045 M23.729,42.516c0,0-2.342,0.251-2.548,0.274c-0.056,0.149-0.27,0.72-0.353,0.946
				c0.289,0.109,2.145,0.804,2.145,0.804l-0.427,1.137l-5.763-2.154l0.953-2.547c0.444-1.181,1.403-1.657,2.504-1.243
				c0.831,0.308,1.276,0.913,1.276,1.718c0,0.011-0.002,0.022-0.002,0.033c0.358-0.037,2.707-0.286,2.707-0.286L23.729,42.516z
				 M19.568,36.851l2.011-3.354l0.095-0.156l1.035,0.622c0,0-1.306,2.18-1.471,2.452c0.204,0.123,0.71,0.428,0.914,0.55
				c0.147-0.249,0.854-1.427,0.854-1.427l1.034,0.621c0,0-0.703,1.179-0.852,1.427c0.226,0.134,1.029,0.616,1.254,0.751
				c0.165-0.275,1.536-2.56,1.536-2.56l1.035,0.621l-2.169,3.618L19.568,36.851z M53.189,82.189
				c-15.194,0-27.51-12.314-27.51-27.507s12.315-27.509,27.51-27.509c15.192,0,27.507,12.316,27.507,27.509
				S68.382,82.189,53.189,82.189 M88.083,70.033c0,0-4.173-1.93-4.479-2.069c-0.134,0.289-1.21,2.62-1.21,2.62l-1.104-0.511
				l1.646-3.573l0.081-0.165l5.585,2.579L88.083,70.033z M89.384,66.659l-5.872-1.835l0.31-1.006l0.056-0.174l5.869,1.837
				L89.384,66.659z M90.814,61.308c-0.165,0.97-0.66,1.592-1.514,1.899l-0.166,0.06l-0.477-1.165l0.165-0.07
				c0.497-0.208,0.692-0.443,0.777-0.93c0.06-0.351-0.003-0.659-0.188-0.915c-0.267-0.377-0.784-0.642-1.493-0.761
				c-1.212-0.204-1.989,0.173-2.136,1.032c-0.085,0.502,0.043,0.854,0.439,1.207l0.14,0.127l-0.839,0.889l-0.132-0.107
				c-0.688-0.574-0.981-1.396-0.823-2.321c0.261-1.552,1.691-2.383,3.561-2.065c1.005,0.169,1.816,0.625,2.284,1.284
				C90.79,59.996,90.93,60.636,90.814,61.308"/>
			<path clip-path="url(#SVGID_4_)" fill="#FFFFFF" d="M39.352,24.674c0.353-0.149,1.254-0.533,1.254-0.533
				c0.287-0.124,0.473-0.277,0.546-0.458l-0.053-0.597L40.7,22.651c-0.189-0.076-0.423-0.06-0.68,0.051c0,0-1.017,0.432-1.278,0.544
				C38.847,23.492,39.247,24.429,39.352,24.674"/>
			<path clip-path="url(#SVGID_4_)" fill="#FFFFFF" d="M19.832,40.902c-0.449-0.167-0.808,0.009-0.989,0.487
				c0,0-0.423,1.138-0.525,1.41c0.249,0.091,1.154,0.432,1.399,0.523c0.104-0.272,0.53-1.408,0.53-1.408
				c0.043-0.12,0.076-0.25,0.076-0.382C20.323,41.286,20.206,41.044,19.832,40.902"/>
			<path clip-path="url(#SVGID_4_)" fill="#FFFFFF" d="M83.409,40.939c0,0.17,0.041,0.348,0.117,0.526
				c0.353,0.81,1.202,0.989,2.33,0.497c0.653-0.286,1.089-0.664,1.258-1.098c0.117-0.298,0.103-0.617-0.042-0.95
				c-0.353-0.802-1.201-0.981-2.325-0.488C83.873,39.81,83.409,40.344,83.409,40.939"/>
			<path clip-path="url(#SVGID_4_)" fill="#FFFFFF" d="M61.853,22.259c0.377-0.233,0.642-0.662,0.79-1.282
				c0.06-0.239,0.088-0.464,0.088-0.669c0-0.322-0.071-0.6-0.214-0.83c-0.213-0.35-0.6-0.595-1.143-0.724
				c0,0-0.319-0.078-0.515-0.126c-0.074,0.31-0.796,3.327-0.868,3.635c0.195,0.049,0.513,0.124,0.513,0.124
				C61.047,22.518,61.502,22.475,61.853,22.259"/>
			<path clip-path="url(#SVGID_4_)" fill="#FFFFFF" d="M39.962,21.142c0-0.099-0.03-0.188-0.054-0.243
				c-0.152-0.359-0.414-0.454-0.797-0.291c0,0-1.002,0.427-1.263,0.538c0.096,0.222,0.349,0.818,0.443,1.041
				c0.354-0.15,1.262-0.536,1.262-0.536C39.878,21.512,39.962,21.311,39.962,21.142"/>
			<path clip-path="url(#SVGID_4_)" d="M33.751,87.625l1.435-2.173c0.214-0.318,0.726-1.059,0.878-1.287
				c-0.23,0.163-0.687,0.47-1.062,0.707l-2.936,1.835l0.538-3.42c0.068-0.439,0.171-0.979,0.23-1.254
				c-0.152,0.229-0.629,0.99-0.843,1.313l-1.433,2.171l-1.157-0.767l3.905-5.911l1.14,0.751l-0.534,3.494
				c-0.067,0.431-0.184,0.994-0.247,1.254c0.221-0.167,0.674-0.485,1.048-0.724l2.96-1.893l1.167,0.771l-3.905,5.911L33.751,87.625z
				"/>
			<polygon clip-path="url(#SVGID_4_)" points="38.227,89.916 40.587,83.234 45.226,84.875 44.762,86.182 41.461,85.015 
				41.053,86.169 42.971,86.846 42.513,88.145 40.595,87.468 40.024,89.083 43.471,90.297 43.01,91.606 			"/>
			<path clip-path="url(#SVGID_4_)" d="M51.417,92.886l0.245-2.589c0.037-0.386,0.143-1.28,0.169-1.553
				c-0.126,0.254-0.386,0.736-0.604,1.123l-1.729,2.998l-1.134-3.27c-0.143-0.421-0.307-0.944-0.383-1.217
				c-0.025,0.272-0.091,1.171-0.128,1.553l-0.246,2.592l-1.381-0.132l0.672-7.054l1.36,0.128l1.169,3.336
				c0.143,0.41,0.304,0.965,0.371,1.225c0.114-0.252,0.365-0.746,0.584-1.134l1.726-3.06l1.39,0.134l-0.67,7.053L51.417,92.886z"/>
			<path clip-path="url(#SVGID_4_)" d="M59.596,92.35l-3.18,0.491l-1.086-7.004l3.214-0.494c1.362-0.211,2.321,0.307,2.509,1.507
				c0.091,0.6-0.113,1.125-0.53,1.476c0.599,0.163,1.096,0.608,1.215,1.378C61.966,91.175,61.098,92.118,59.596,92.35
				 M58.686,86.642l-1.781,0.273l0.205,1.332l1.851-0.284c0.58-0.093,0.749-0.394,0.69-0.783
				C59.579,86.741,59.296,86.549,58.686,86.642 M59.162,89.201l-1.861,0.288l0.28,1.811l1.859-0.287
				c0.681-0.105,0.944-0.514,0.86-1.067C60.208,89.346,59.839,89.097,59.162,89.201"/>
			<polygon clip-path="url(#SVGID_4_)" points="65.205,91.029 62.564,84.457 67.131,82.62 67.647,83.91 64.396,85.211 
				64.853,86.349 66.741,85.592 67.254,86.869 65.366,87.627 66.003,89.216 69.395,87.856 69.911,89.142 			"/>
			<path clip-path="url(#SVGID_4_)" d="M75.759,85.533l-2.479-1.4l-1.182,0.8l1.431,2.113l-1.173,0.794l-3.975-5.865l2.731-1.852
				c1.105-0.75,2.435-0.757,3.278,0.491c0.596,0.88,0.596,1.688,0.05,2.486l2.667,1.518L75.759,85.533z M71.86,81.278l-1.534,1.039
				l1.021,1.509l1.534-1.039c0.548-0.367,0.668-0.818,0.321-1.328C72.844,80.929,72.379,80.927,71.86,81.278"/>
			<path clip-path="url(#SVGID_4_)" d="M88.38,87.004c1.022,0,1.898,0.794,1.898,1.87c0,1.089-0.876,1.884-1.898,1.884
				c-1.031,0-1.907-0.795-1.907-1.884C86.473,87.798,87.349,87.004,88.38,87.004 M88.38,87.308c-0.87,0-1.544,0.674-1.544,1.566
				c0,0.917,0.674,1.581,1.544,1.581c0.861,0,1.533-0.664,1.533-1.581C89.913,87.982,89.241,87.308,88.38,87.308 M87.981,89.963
				h-0.334v-2.165h0.829c0.516,0,0.77,0.191,0.77,0.618c0,0.39-0.244,0.555-0.567,0.598l0.618,0.949h-0.366l-0.576-0.938h-0.373
				V89.963z M87.981,88.749h0.395c0.405,0,0.535-0.115,0.535-0.353c0-0.208-0.101-0.325-0.479-0.325h-0.45V88.749z"/>
		</g>
	</g>
</g>
</svg>
