<?xml version="1.0" encoding="utf-8"?>
<!-- Generator: Adobe Illustrator 15.1.0, SVG Export Plug-In . SVG Version: 6.00 Build 0)  -->
<!DOCTYPE svg PUBLIC "-//W3C//DTD SVG 1.1//EN" "http://www.w3.org/Graphics/SVG/1.1/DTD/svg11.dtd">
<svg version="1.1" id="Layer_1" xmlns="http://www.w3.org/2000/svg" xmlns:xlink="http://www.w3.org/1999/xlink" x="0px" y="0px"
	 width="50px" height="50px" viewBox="0 0 50 50" enable-background="new 0 0 50 50" xml:space="preserve">
<g id="Layer_4" display="none">
	<path display="inline" fill="#74BE45" d="M19,28.875c0.696,0.628,1.418,0.425,2.248-0.632c1.239,1.63,6.252,6.821,6.252,6.821
		s-1.893,1.47-5.547,0.188c-2.365-0.829-7.475-3.888-11.455-9.076c-2.166-2.824-3.548-6.179-4.656-10.114
		c-0.887-3.464,0.301-4.856,1.698-5.744l5.16,7.87c0,0-1.731,1.162-0.24,3.382C12.46,21.57,14.419,25.719,19,28.875"/>
	<path display="inline" fill="#74BE45" d="M8.657,9.674c0,0,2.092-1.497,3.964,0.535c1.871,2.03,3.786,5.451,1.219,7.412
		C12.413,15.63,8.657,9.674,8.657,9.674"/>
	<path display="inline" fill="#74BE45" d="M22.391,27.383l6.382,6.663c0,0,1.914-2.437,0.455-3.923
		c-1.457-1.488-3.197-3.374-3.197-3.374S24.412,25.344,22.391,27.383"/>
</g>
<g id="Layer_3" display="none">
	<path display="inline" fill="#74BE45" d="M102.773,8.354H76.967c-2.297,0.007-4.154,1.862-4.154,4.163v16.734
		c0,2.308,1.857,4.155,4.154,4.162h25.807c2.297-0.007,4.16-1.863,4.16-4.162V12.518C106.934,10.216,105.068,8.354,102.773,8.354
		 M101.834,11.553l-11.771,8.359L79.01,11.553H101.834z M102.773,30.215H76.967c-0.525,0-0.957-0.424-0.957-0.963v-15.96L90,23.875
		l13.729-9.757v15.134C103.73,29.791,103.307,30.215,102.773,30.215"/>
</g>
<g id="Layer_2" display="none">
	<path display="inline" fill="#FFFFFF" d="M46.859,24.754h4.23v-3.448h-2.506V9.87h12.773v11.436H58.85v3.448h4.23
		c0.951,0,1.723-0.771,1.723-1.722V8.143c0-0.948-0.771-1.719-1.723-1.719H46.859c-0.949,0-1.723,0.771-1.723,1.719v14.889
		C45.137,23.982,45.91,24.754,46.859,24.754"/>
	<path display="inline" fill="#FFFFFF" d="M59.305,27.2l-2.361,2.366V16c0-1.088-0.885-1.97-1.971-1.97
		C53.884,14.03,53,14.912,53,16v13.566L50.637,27.2c-0.387-0.384-0.892-0.575-1.395-0.575c-0.504,0-1.006,0.191-1.395,0.575
		c-0.769,0.772-0.769,2.021,0,2.79l7.125,7.121l7.118-7.121c0.771-0.771,0.771-2.018,0-2.79
		C61.322,26.434,60.076,26.434,59.305,27.2"/>
</g>
<g id="Isolation_Mode" display="none">
	<path display="inline" fill="#FFFFFF" d="M36.286,11.493c-1.933,0.938-11.488,11.81-16.664,16.907l-3.964-3.954
		c-0.464-0.555-1.45-2.285-2.393-1.159l-1.449,2.1c-0.944,1.127,0.053,2.975,0.796,3.553l6.377,7.352
		c0.743,0.577,2.108,0.132,3.051-0.994l0.802-0.957l0.004-0.002l14.843-21.19C38.632,12.021,40.84,9.492,36.286,11.493"/>
</g>
<g id="Isolation_Mode_1_">
	<path fill="#FFFFFF" d="M34.798,15.988c-0.563,0-1.052-0.15-1.017-2.282v-0.587c0.027-2.2,0.453-2.278,1.017-2.278h1.701
		c0.561,0,1.014-0.157,1.018,2.278v0.587c0.013,2.367-0.457,2.282-1.018,2.282H34.798z"/>
	<path fill="#FFFFFF" d="M28.56,15.988c-0.56,0-1.054-0.15-1.015-2.282v-0.587c0.024-2.2,0.455-2.278,1.015-2.278h1.704
		c0.56,0,1.005-0.157,1.017,2.278v0.587c0.011,2.367-0.457,2.282-1.017,2.282H28.56z"/>
	<path fill="#FFFFFF" d="M22.322,15.988c-0.559,0-1.049-0.15-1.016-2.282v-0.587c0.024-2.2,0.457-2.278,1.016-2.278h1.703
		c0.561,0,1.009-0.157,1.017,2.278v0.587c0.011,2.367-0.456,2.282-1.017,2.282H22.322z"/>
	<path fill="#FFFFFF" d="M38.323,23.435c-0.562,0-1.05-0.146-1.015-2.279v-0.586c0.024-2.202,0.452-2.28,1.015-2.28h1.703
		c0.561,0,1.004-0.156,1.014,2.28v0.586c0.011,2.366-0.453,2.279-1.014,2.279H38.323z"/>
	<path fill="#FFFFFF" d="M32.085,23.435c-0.56,0-1.052-0.146-1.017-2.279v-0.586c0.026-2.202,0.457-2.28,1.017-2.28h1.702
		c0.56,0,1.007-0.156,1.019,2.28v0.586c0.009,2.366-0.459,2.279-1.019,2.279H32.085z"/>
	<path fill="#FFFFFF" d="M37.146,30.943c-0.561,0-1.053-0.146-1.016-2.28V28.08c0.026-2.204,0.455-2.278,1.016-2.278h1.701
		c0.561,0,1.011-0.159,1.021,2.278v0.583c0.011,2.365-0.46,2.28-1.021,2.28H37.146z"/>
	<path fill="#FFFFFF" d="M30.909,30.943c-0.562,0-1.054-0.146-1.017-2.28V28.08c0.025-2.204,0.454-2.278,1.017-2.278h1.703
		c0.561,0,1.004-0.159,1.013,2.278v0.583c0.016,2.365-0.452,2.28-1.013,2.28H30.909z"/>
	<path fill="#FFFFFF" d="M24.675,30.943c-0.564,0-1.058-0.146-1.021-2.28V28.08c0.025-2.204,0.456-2.278,1.021-2.278h1.699
		c0.561,0,1.006-0.159,1.015,2.278v0.583c0.014,2.365-0.454,2.28-1.015,2.28H24.675z"/>
	<path fill="#FFFFFF" d="M35.091,38.994c-0.557,0-1.052-0.152-1.017-2.282v-0.585c0.026-2.206,0.46-2.284,1.017-2.284h1.705
		c0.559,0,1.01-0.151,1.016,2.284v0.585c0.009,2.363-0.457,2.282-1.016,2.282H35.091z"/>
	<path fill="#FFFFFF" d="M28.854,38.994c-0.563,0-1.052-0.152-1.017-2.282v-0.585c0.024-2.206,0.453-2.284,1.017-2.284h1.702
		c0.561,0,1.006-0.151,1.013,2.284v0.585c0.015,2.363-0.452,2.282-1.013,2.282H28.854z"/>
	<path fill="#FFFFFF" d="M22.617,38.994c-0.562,0-1.053-0.152-1.017-2.282v-0.585c0.023-2.206,0.454-2.284,1.017-2.284h1.701
		c0.561,0,1.008-0.151,1.017,2.284v0.585c0.012,2.363-0.456,2.282-1.017,2.282H22.617z"/>
	<path fill="#FFFFFF" d="M12.633,15.988h3.31c0.051,0.002,0.097,0.006,0.148,0.006h1.7c0.562,0,1.031,0.087,1.017-2.279v-0.588
		c-0.008-2.437-0.454-2.278-1.017-2.278h-0.699c-0.251-0.012-0.511-0.008-0.783-0.008h-4.191c-0.251,0-0.48,0.008-0.709,0.024H10.53
		c-0.561,0-0.988,0.078-1.015,2.28v0.588c-0.036,2.132,0.454,2.279,1.015,2.279h1.702C12.376,16.013,12.512,16.018,12.633,15.988"/>
	<path fill="#FFFFFF" d="M27.18,23.688c0.458,0,0.846,0.031,0.974-1.256c0.054-0.288,0.082-0.628,0.072-1.075V20.77
		c0.017-0.434-0.019-0.77-0.081-1.062c-0.125-1.33-0.507-1.25-0.965-1.25h-0.579c-0.827-0.093-1.963-0.004-3.47,0.005h-8.546
		c-0.795,0.008-1.442,0.021-2.012,0.047c-0.111-0.017-0.233-0.01-0.357-0.01h-1.702c-0.549,0-0.972,0.088-1.01,2.17
		c-0.005,0.033-0.011,0.062-0.013,0.1v0.588c0,0.041,0.008,0.067,0.008,0.104c-0.017,2.029,0.464,2.186,1.015,2.186h1.657
		c0.653,0.029,1.452,0.024,2.414,0.022h8.546c0.835,0.002,1.49,0.002,2.082-0.008c0.081,0.017,0.174,0.026,0.264,0.026H27.18z"/>
	<path fill="#FFFFFF" d="M17.797,30.997c0.32,0,0.623-0.004,0.914-0.013h1.229c0.562,0,1.028,0.085,1.017-2.281v-0.586
		c-0.005-2.438-0.454-2.282-1.017-2.282h-1.703c-0.078,0-0.148,0.004-0.223,0.013h-0.217h-5.151c-0.12-0.02-0.251-0.013-0.386-0.013
		h-1.7c-0.561,0-0.994,0.08-1.018,2.282v0.586c-0.038,2.133,0.457,2.281,1.018,2.281h1.423c0.212,0.009,0.43,0.013,0.65,0.013
		H17.797z"/>
	<path fill="#FFFFFF" d="M16.117,39.128h1.703c0.562,0,1.028,0.085,1.017-2.282v-0.587c-0.007-2.436-0.454-2.28-1.017-2.28h-0.944
		c-0.184-0.002-0.365,0-0.561,0h-0.198h-3.629c-0.073-0.002-0.149,0-0.228,0H12.12h-1.562c-0.561,0-0.99,0.08-1.017,2.28v0.587
		c-0.034,2.134,0.456,2.282,1.017,2.282h1.702c0.074,0,0.146,0,0.216-0.004h3.595C16.086,39.124,16.103,39.128,16.117,39.128"/>
</g>
</svg>
