<?xml version="1.0" encoding="utf-8"?>
<!-- Generator: Adobe Illustrator 15.1.0, SVG Export Plug-In . SVG Version: 6.00 Build 0)  -->
<!DOCTYPE svg PUBLIC "-//W3C//DTD SVG 1.1//EN" "http://www.w3.org/Graphics/SVG/1.1/DTD/svg11.dtd">
<svg version="1.1" id="Layer_1" xmlns="http://www.w3.org/2000/svg" xmlns:xlink="http://www.w3.org/1999/xlink" x="0px" y="0px"
	 width="50px" height="50px" viewBox="33.438 -3 50 50" enable-background="new 33.438 -3 50 50" xml:space="preserve">
<g id="Layer_4" display="none">
	<path display="inline" fill="#74BE45" d="M19,28.875c0.696,0.628,1.418,0.425,2.248-0.632c1.239,1.63,6.252,6.821,6.252,6.821
		s-1.892,1.47-5.547,0.188c-2.365-0.829-7.475-3.888-11.455-9.076c-2.166-2.824-3.548-6.179-4.656-10.114
		c-0.887-3.464,0.301-4.856,1.698-5.744l5.16,7.87c0,0-1.731,1.162-0.24,3.382C12.46,21.57,14.419,25.719,19,28.875"/>
	<path display="inline" fill="#74BE45" d="M8.657,9.674c0,0,2.092-1.497,3.964,0.535c1.871,2.03,3.786,5.451,1.219,7.412
		C12.413,15.63,8.657,9.674,8.657,9.674"/>
	<path display="inline" fill="#74BE45" d="M22.391,27.383l6.383,6.663c0,0,1.913-2.437,0.455-3.923
		c-1.458-1.488-3.198-3.374-3.198-3.374S24.412,25.344,22.391,27.383"/>
</g>
<g id="Layer_3">
	<path fill="#FFFFFF" d="M71.338,9.471H45.531c-2.297,0.007-4.154,1.861-4.154,4.163v16.733c0,2.308,1.857,4.155,4.154,4.162h25.807
		c2.297-0.007,4.16-1.863,4.16-4.162V13.635C75.498,11.332,73.633,9.471,71.338,9.471 M70.398,12.67l-11.771,8.358L47.574,12.67
		H70.398z M71.338,31.331H45.531c-0.524,0-0.957-0.424-0.957-0.963v-15.96l13.99,10.583l13.73-9.757v15.134
		C72.295,30.907,71.871,31.331,71.338,31.331"/>
</g>
<g id="Layer_2" display="none">
	<path display="inline" fill="#74BE45" d="M44.86,24.754h4.231v-3.448h-2.506V9.87h12.774v11.436h-2.507v3.448h4.23
		c0.951,0,1.723-0.771,1.723-1.722V8.143c0-0.948-0.771-1.719-1.723-1.719H44.86c-0.95,0-1.724,0.771-1.724,1.719v14.889
		C43.136,23.982,43.91,24.754,44.86,24.754"/>
	<path display="inline" fill="#74BE45" d="M57.304,27.2l-2.36,2.366V16c0-1.088-0.885-1.97-1.972-1.97C51.884,14.03,51,14.912,51,16
		v13.566L48.636,27.2c-0.386-0.384-0.891-0.575-1.394-0.575c-0.503,0-1.006,0.191-1.394,0.575c-0.768,0.772-0.768,2.021,0,2.79
		l7.124,7.121l7.12-7.121c0.77-0.77,0.77-2.018,0-2.79C59.322,26.434,58.076,26.434,57.304,27.2"/>
</g>
</svg>
