<?xml version="1.0" encoding="utf-8"?>
<!-- Generator: Adobe Illustrator 15.1.0, SVG Export Plug-In . SVG Version: 6.00 Build 0)  -->
<!DOCTYPE svg PUBLIC "-//W3C//DTD SVG 1.1//EN" "http://www.w3.org/Graphics/SVG/1.1/DTD/svg11.dtd">
<svg version="1.1" id="Layer_1" xmlns="http://www.w3.org/2000/svg" xmlns:xlink="http://www.w3.org/1999/xlink" x="0px" y="0px"
	 width="50px" height="50px" viewBox="29.938 -3 50 50" enable-background="new 29.938 -3 50 50" xml:space="preserve">
<g id="Layer_4" display="none">
	<path display="inline" fill="#74BE45" d="M19,28.875c0.696,0.628,1.418,0.425,2.248-0.632c1.239,1.63,6.252,6.821,6.252,6.821
		s-1.892,1.47-5.547,0.188c-2.365-0.829-7.475-3.888-11.455-9.076c-2.166-2.824-3.548-6.179-4.656-10.114
		c-0.887-3.464,0.301-4.856,1.698-5.744l5.16,7.87c0,0-1.731,1.162-0.24,3.382C12.46,21.57,14.419,25.719,19,28.875"/>
	<path display="inline" fill="#74BE45" d="M8.657,9.674c0,0,2.092-1.497,3.964,0.535c1.871,2.03,3.786,5.451,1.219,7.412
		C12.413,15.63,8.657,9.674,8.657,9.674"/>
	<path display="inline" fill="#74BE45" d="M22.391,27.383l6.383,6.663c0,0,1.913-2.437,0.455-3.923
		c-1.458-1.488-3.198-3.374-3.198-3.374S24.412,25.344,22.391,27.383"/>
</g>
<g id="Layer_3" display="none">
	<path display="inline" fill="#74BE45" d="M102.773,8.354H76.967c-2.297,0.007-4.154,1.862-4.154,4.163v16.734
		c0,2.308,1.857,4.155,4.154,4.162h25.807c2.297-0.007,4.16-1.863,4.16-4.162V12.518C106.934,10.216,105.068,8.354,102.773,8.354
		 M101.834,11.553l-11.771,8.359L79.01,11.553H101.834z M102.773,30.215H76.967c-0.525,0-0.957-0.424-0.957-0.963v-15.96L90,23.875
		l13.729-9.757v15.134C103.73,29.791,103.307,30.215,102.773,30.215"/>
</g>
<g id="Layer_2">
	<path fill="#FFFFFF" d="M46.86,24.754h4.231v-3.448h-2.506V9.87h12.774v11.436h-2.507v3.448h4.23c0.951,0,1.723-0.771,1.723-1.722
		V8.143c0-0.948-0.771-1.719-1.723-1.719H46.86c-0.95,0-1.724,0.771-1.724,1.719v14.889C45.136,23.982,45.91,24.754,46.86,24.754"/>
	<path fill="#FFFFFF" d="M59.305,27.2l-2.361,2.366V16c0-1.088-0.885-1.97-1.972-1.97C53.884,14.03,53,14.912,53,16v13.566
		L50.636,27.2c-0.386-0.384-0.891-0.575-1.394-0.575c-0.503,0-1.006,0.191-1.394,0.575c-0.768,0.772-0.768,2.021,0,2.79l7.124,7.121
		l7.12-7.121c0.77-0.77,0.77-2.018,0-2.79C61.322,26.434,60.076,26.434,59.305,27.2"/>
</g>
</svg>
