<?xml version="1.0" encoding="utf-8"?>
<!-- Generator: Adobe Illustrator 15.1.0, SVG Export Plug-In . SVG Version: 6.00 Build 0)  -->
<!DOCTYPE svg PUBLIC "-//W3C//DTD SVG 1.1//EN" "http://www.w3.org/Graphics/SVG/1.1/DTD/svg11.dtd">
<svg version="1.1" id="Layer_1" xmlns="http://www.w3.org/2000/svg" xmlns:xlink="http://www.w3.org/1999/xlink" x="0px" y="0px"
	 width="33px" height="50px" viewBox="8.5 0 33 50" enable-background="new 8.5 0 33 50" xml:space="preserve">
<g id="Layer_4">
	<path fill="#FFFFFF" d="M26.5,31.5c0.694,0.628,1.418,0.425,2.247-0.632c1.238,1.63,6.253,6.82,6.253,6.82
		s-1.894,1.471-5.548,0.188c-2.364-0.829-7.476-3.888-11.455-9.076c-2.166-2.824-3.547-6.179-4.655-10.113
		c-0.888-3.464,0.301-4.856,1.698-5.744l5.16,7.87c0,0-1.731,1.162-0.24,3.382C19.96,24.195,21.919,28.344,26.5,31.5"/>
	<path fill="#FFFFFF" d="M16.157,12.299c0,0,2.092-1.497,3.963,0.535c1.871,2.03,3.787,5.451,1.22,7.412
		C19.913,18.255,16.157,12.299,16.157,12.299"/>
	<path fill="#FFFFFF" d="M29.89,30.008l6.383,6.663c0,0,1.913-2.438,0.455-3.923c-1.458-1.488-3.197-3.374-3.197-3.374
		S31.911,27.969,29.89,30.008"/>
</g>
<g id="Layer_3" display="none">
	<path display="inline" fill="#74BE45" d="M66.773,8.354H40.967c-2.297,0.007-4.154,1.862-4.154,4.163v16.734
		c0,2.308,1.857,4.155,4.154,4.162h25.807c2.297-0.007,4.16-1.863,4.16-4.162V12.518C70.934,10.216,69.068,8.354,66.773,8.354
		 M65.834,11.553l-11.771,8.359L43.01,11.553H65.834z M66.773,30.215H40.967c-0.525,0-0.957-0.424-0.957-0.963v-15.96L54,23.875
		l13.73-9.757v15.134C67.73,29.791,67.307,30.215,66.773,30.215"/>
</g>
<g id="Layer_2" display="none">
	<path display="inline" fill="#74BE45" d="M44.859,24.754h4.231v-3.448h-2.506V9.87h12.774v11.436h-2.508v3.448h4.23
		c0.951,0,1.723-0.771,1.723-1.722V8.143c0-0.948-0.771-1.719-1.723-1.719H44.859c-0.949,0-1.723,0.771-1.723,1.719v14.889
		C43.137,23.982,43.91,24.754,44.859,24.754"/>
	<path display="inline" fill="#74BE45" d="M57.305,27.2l-2.361,2.366V16c0-1.088-0.885-1.97-1.971-1.97
		C51.884,14.03,51,14.912,51,16v13.566L48.637,27.2c-0.387-0.384-0.892-0.575-1.395-0.575c-0.504,0-1.006,0.191-1.395,0.575
		c-0.768,0.772-0.768,2.021,0,2.79l7.125,7.121l7.119-7.121c0.77-0.771,0.77-2.018,0-2.79C59.322,26.434,58.076,26.434,57.305,27.2"
		/>
</g>
</svg>
