<?xml version="1.0" encoding="utf-8"?>
<!-- Generator: Adobe Illustrator 15.1.0, SVG Export Plug-In . SVG Version: 6.00 Build 0)  -->
<!DOCTYPE svg PUBLIC "-//W3C//DTD SVG 1.1//EN" "http://www.w3.org/Graphics/SVG/1.1/DTD/svg11.dtd">
<svg version="1.1" id="Layer_1" xmlns="http://www.w3.org/2000/svg" xmlns:xlink="http://www.w3.org/1999/xlink" x="0px" y="0px"
	 width="34.5px" height="39.5px" viewBox="0 0 34.5 39.5" enable-background="new 0 0 34.5 39.5" xml:space="preserve">
<g id="Layer_2">
	<path fill="#72BE44" d="M9.646,22.86h4.231v-3.447h-2.506V7.977h12.774v11.437h-2.508v3.447h4.23c0.951,0,1.723-0.771,1.723-1.722
		V6.25c0-0.948-0.771-1.719-1.723-1.719H9.646c-0.949,0-1.723,0.771-1.723,1.719v14.889C7.923,22.089,8.696,22.86,9.646,22.86"/>
	<path fill="#72BE44" d="M22.091,25.307l-2.361,2.366V14.106c0-1.088-0.885-1.97-1.971-1.97c-1.089,0-1.973,0.882-1.973,1.97v13.566
		l-2.363-2.366c-0.387-0.384-0.892-0.575-1.395-0.575c-0.504,0-1.006,0.191-1.395,0.575c-0.768,0.772-0.768,2.021,0,2.79
		l7.125,7.121l7.119-7.121c0.77-0.771,0.77-2.018,0-2.79C24.108,24.54,22.862,24.54,22.091,25.307"/>
</g>
</svg>
