<svg id="Layer_1" data-name="Layer 1" xmlns="http://www.w3.org/2000/svg" viewBox="0 0 500 500"><defs><style>.cls-1{fill:#1c1918;}.cls-2{fill:#ffd59e;}.cls-3{fill:#ecb57c;}.cls-4{fill:#39180f;}.cls-5{fill:#f26e4a;}.cls-6{fill:#fff;}.cls-7{fill:#ecaf7f;}.cls-8{fill:#613026;}.cls-9{fill:#edc092;}.cls-10{fill:#ffe4bf;}.cls-11{fill:#8b8887;}.cls-12{fill:#312b27;}.cls-13{fill:#706768;}.cls-14{fill:#7e7f7e;}.cls-15{fill:#aaa9a8;}.cls-16{fill:#2d231e;}.cls-17{fill:#3c3a39;}.cls-18{fill:#dfd8d5;}.cls-19{fill:#242e22;}.cls-20{fill:#152013;}.cls-21{fill:#4e4947;}.cls-22{font-size:34.53px;font-family:OpenSans-Semibold, Open Sans;font-weight:700;}</style></defs><title>Artboard 25</title><ellipse class="cls-1" cx="251.81" cy="316.61" rx="100" ry="49.28"/><path class="cls-2" d="M287.5,296.29s-10.39,16.5-36.41,16.77c-26.47.27-37.2-16.77-37.2-16.77V236.12H287.5Z"/><path class="cls-3" d="M273.07,236.12V298a41.22,41.22,0,0,1-13.84,14.42c20.07-3.1,28.28-16.11,28.28-16.11V236.12Z"/><ellipse class="cls-4" cx="297.99" cy="151.15" rx="10.64" ry="32.88"/><path class="cls-2" d="M304.22,162.38c0,51.83-24.3,89.64-54.28,89.64s-54.28-37.81-54.28-89.64S220,82.17,249.94,82.17,304.22,110.55,304.22,162.38Z"/><path class="cls-3" d="M276.12,90.72c8.27,15.7,18.56,35.36,18.64,63.28.2,68-27.27,86.66-50,97.78a35.26,35.26,0,0,0,5.19.4c30,0,54.28-37.81,54.28-89.64C304.22,127.12,292.87,102.67,276.12,90.72Z"/><path class="cls-5" d="M249.85,213.38c-7.06,0-13.3-4.23-17.18-6.88,1.2,3.27,8.42,12.73,17.18,12.73s16-9.47,17.18-12.73C263.14,209.15,256.9,213.38,249.85,213.38Z"/><path class="cls-6" d="M265.69,206.74c0,3-7.1,10-15.85,10s-15.85-7-15.85-10,7.1-3.26,15.85-3.26S265.69,203.79,265.69,206.74Z"/><path class="cls-4" d="M228.94,119.87c.5,9.9-10,8.87-16.83,15.76-6.55,6.59-9.38,21.35-13.24,19.54-5.13-2.41-17.6-16-11-53.74,4.3-24.58,22.91-24.75,29.34-21.66C223.82,82.81,227.71,100.25,228.94,119.87Z"/><path class="cls-4" d="M307.43,118.27c-2.76,17.91-35,10-58.68,5.62S210,104.1,212.8,86.19,242,62.58,265.62,66.94,310.19,100.36,307.43,118.27Z"/><path class="cls-4" d="M265.39,66.78C245.21,63.06,223,66.68,215.24,79a12.18,12.18,0,0,1,1.74.66c6.22,2.86,10,18.45,11.49,36.61a57.52,57.52,0,0,0,20.06,7.5c23.64,4.36,55.92,12.29,58.68-5.62S289,71.14,265.39,66.78Z"/><path class="cls-4" d="M305.14,166.46c-1.45,34.18-18.31,60.7-36.31,70.79-6.12,3.43-12.57,2.93-18.89,2.93-6.77,0-13.68.24-20.19-3.68-17.44-10.51-32.68-36.68-34.1-70-.79,7.23,1,14.47,1,21.54,0,24.32,6,43,15.23,56.05,10.1,14.3,24,16.17,38,16.17,13.13,0,26.18-3.58,36.08-16.17C296.31,231,303.19,214,303.19,188,303.19,180.93,305.94,173.69,305.14,166.46Z"/><path class="cls-4" d="M250,203.94c0,2.37-8.14,2.75-15.16,2.75s-10.26,1.71-10.26-.66,3.24-7.94,10.26-7.94S250,201.56,250,203.94Z"/><path class="cls-4" d="M248.8,203.94c0,2.37,8.15,2.75,15.16,2.75s10.26,1.71,10.26-.66S271,198.09,264,198.09,248.8,201.56,248.8,203.94Z"/><path class="cls-4" d="M225.76,221.61c0,8.19.57,15-1.22,15s-6.25-4.3-6.25-12.48,5.92-20.43,7.71-20.43S225.76,213.42,225.76,221.61Z"/><path class="cls-4" d="M272.86,221.61c0,8.19-.57,15,1.22,15s6.26-4.3,6.26-12.48-5.92-20.43-7.71-20.43S272.86,213.42,272.86,221.61Z"/><path class="cls-4" d="M260.26,220.85c0,1.52-4.79,11.78-10.68,11.78s-10.69-10.26-10.69-11.78,4.79,0,10.69,0S260.26,219.34,260.26,220.85Z"/><path class="cls-7" d="M259.07,194.46c0,2.09-4.33,4.9-9.66,4.9s-9.66-2.81-9.66-4.9,4.32.54,9.66.54S259.07,192.37,259.07,194.46Z"/><path class="cls-4" d="M223.59,183.45c-9.38,0-15.69-13.51-15.69-23.93,0-8.36,7.22-10.24,19-10.24S245,152,245,160.36C245,170,233.1,183.45,223.59,183.45Zm3.33-32.75c-11.08,0-16.24,3.5-16.24,11,0,7.85,3.45,19.53,13,19.53,8.92,0,19.49-10.58,19.49-19.53C243.15,154.21,238,150.71,226.92,150.71Z"/><path class="cls-4" d="M255.37,160.36c0-8.36,6.3-11.07,18.09-11.07s19,1.88,19,10.24c0,10.41-6.31,23.93-15.69,23.93S255.37,170,255.37,160.36Zm1.86,1.36c0,8.95,10.56,19.53,19.49,19.53,9.53,0,13-11.68,13-19.53,0-7.51-5.16-11-16.24-11S257.23,154.21,257.23,161.72Z"/><path class="cls-4" d="M257.72,153.91c0,.48-.22,5.46-.61,5.87-1.18,1.24-3.95-1.7-7.17-1.7-2.86,0-5.35,3.13-6.7,2.11-.69-.52-1.08-5.64-1.08-6.28,0-1.91,3.48,0,7.78,0S257.72,152,257.72,153.91Z"/><path class="cls-4" d="M195.73,156.62a5.65,5.65,0,0,1,1.66-4.34,8.42,8.42,0,0,1,4.1-2.19,13.82,13.82,0,0,1,6.5.06,7.1,7.1,0,0,1,3.92,2.21,1.91,1.91,0,0,1-.89,3l-.69.06c-.25-1-1.27-1.42-2.57-1.4a15.84,15.84,0,0,0-3.94.63c-1.32.3-2.63.68-3.9,1.09L196.1,157Z"/><path class="cls-4" d="M305.47,156.62a6,6,0,0,0-1.47-4.34,7.32,7.32,0,0,0-3.65-2.19,11,11,0,0,0-5.79.06,6.19,6.19,0,0,0-3.49,2.21,2,2,0,0,0,.79,3l.62.06c.22-1,1.13-1.42,2.29-1.4a12.71,12.71,0,0,1,3.51.63,36,36,0,0,1,3.48,1.09l3.4,1.3Z"/><path class="cls-8" d="M215.24,79a12.18,12.18,0,0,1,1.74.66c6.22,2.86,10,18.45,11.49,36.61a55.23,55.23,0,0,0,15.68,6.53c.23-8.27-1.26-19-4.55-30.25a111.22,111.22,0,0,0-9.89-23.94C223.37,70.8,218.23,74.23,215.24,79Z"/><path class="cls-8" d="M209.93,105.72c3.81,12.79,3.4,21,.3,21.9s-10.58-1.1-14.4-13.89S194.17,86,197.27,85.09,206.12,92.93,209.93,105.72Z"/><path class="cls-6" d="M221.93,155.06a15.62,15.62,0,0,0-4,5.83,18.22,18.22,0,0,0-.78,3.29c-.2,1.2-.3,2.48-.58,3.92a7.93,7.93,0,0,1-1.94-3.82,8.27,8.27,0,0,1,.28-4.47C216,156.84,219,154.66,221.93,155.06Z"/><path class="cls-6" d="M269,155.06a15.62,15.62,0,0,0-4,5.83,18.65,18.65,0,0,0-.78,3.29c-.2,1.2-.3,2.48-.58,3.92a7.9,7.9,0,0,1-1.94-3.82,8.2,8.2,0,0,1,.28-4.47C263,156.84,266,154.66,269,155.06Z"/><path class="cls-9" d="M239.61,158.64a11.27,11.27,0,0,1,.63,7.4,16.32,16.32,0,0,1-3.32,6.77,20.83,20.83,0,0,1-5.57,4.82,13.56,13.56,0,0,1-3.55,1.4,6,6,0,0,1-3.8-.21,16.43,16.43,0,0,0,5-4.2c1.42-1.59,2.74-3.21,4.09-4.89a47,47,0,0,0,6.53-11.1Z"/><path class="cls-9" d="M287.77,160.38a11.14,11.14,0,0,1,1.4,7,14.3,14.3,0,0,1-2.68,6.88,16.2,16.2,0,0,1-5.5,4.78,10.35,10.35,0,0,1-3.65,1.07,5.2,5.2,0,0,1-3.62-.89,10.91,10.91,0,0,0,5-3.35,49.58,49.58,0,0,0,3.75-4.52A37.51,37.51,0,0,0,287.77,160.38Z"/><path class="cls-10" d="M244.1,193.54a7.62,7.62,0,0,1-.6-4.68,7,7,0,0,1,2.63-4.21,10.27,10.27,0,0,1,2.14-1.3l.28-.13.07,0,0,0h0l-.13.06h0l.06,0a.45.45,0,0,0-.14.09c-.15.16,0,0,0-.15.06-.28.1-.63.14-1,.15-1.44.14-3,.2-4.49a154.82,154.82,0,0,1,1-18.47,66.71,66.71,0,0,1,1.28,9.24,79.57,79.57,0,0,1,.12,9.31,32.63,32.63,0,0,1-.51,4.73,7.22,7.22,0,0,1-.35,1.27,2.43,2.43,0,0,1-.52.89,1.57,1.57,0,0,1-.24.19l-.07,0-.17.08h0l-.06,0L249,185a10.33,10.33,0,0,0-1.92.9,6.41,6.41,0,0,0-2.68,3.15A8.25,8.25,0,0,0,244.1,193.54Z"/><path class="cls-10" d="M219.59,141.93a14,14,0,0,1,3.23-8.29,16.92,16.92,0,0,1,7.55-5.35,22.22,22.22,0,0,1,4.4-1,33.9,33.9,0,0,1,4.31-.35c2.86,0,6,.16,8.59,1.78a72.16,72.16,0,0,0-8,2.06c-2.55.76-5.4,1.41-7.6,2.17C227.41,134.54,223.46,137.54,219.59,141.93Z"/><path class="cls-11" d="M245.08,251.17c.74,0,1,0,1.1,0l-.35-3c-.08,0-2.69.19-16.21-.87A63.83,63.83,0,0,1,179.53,216c-6.94-12.14-.87-29.82-.81-30l-4.89-1c-.27.77-6.56,19.11,1,32.4,8.51,14.9,28.66,30.83,54.51,32.86C239.13,251,243.34,251.17,245.08,251.17Z"/><path class="cls-12" d="M173.52,185l2.25.44c-1.41,4.85-4.86,19.62,1.54,30.8,8.51,14.9,28.66,30.83,54.5,32.86,7.36.58,11.57.79,13.94.86l.13,1.16c-.07,0-.36,0-1.1,0-1.74,0-6-.13-15.72-.89-25.84-2-46-18-54.51-32.86C167,204.14,173.26,185.79,173.52,185Z"/><path class="cls-11" d="M317.5,132.8C314.8,99.64,282.8,71,247,71s-62.67,28.61-65.38,61.76h-6c2.72-36.26,32.27-67.4,71.36-67.4s73.74,31.14,76.47,67.4Z"/><path class="cls-13" d="M245.86,66.24a69.84,69.84,0,0,0-41.76,13.67A69.82,69.82,0,0,1,247,65.36c39.08,0,73.74,31.14,76.46,67.4h-1.22C319,96.87,284.63,66.24,245.86,66.24Z"/><path class="cls-12" d="M247.57,71.18c-34.76,0-61.44,29.27-66,64.51h-3c2.63-36.27,31.2-67.41,69-67.41s71.3,31.13,73.93,67.41h-3.06C313.34,100.45,282.33,71.18,247.57,71.18Z"/><path class="cls-14" d="M238.06,249.24c-.93,2.19.63,4.21,3.51,4.28a74.4,74.4,0,0,0,12.11-.6c2.92-.4,4.56-2.15,3.67-3.66h0a6.54,6.54,0,0,0-5.23-2.63,53.74,53.74,0,0,1-8.82-.64,5.18,5.18,0,0,0-5.24,3.23Z"/><path class="cls-12" d="M242,251.64a69.6,69.6,0,0,0,11.29-.29c2.27-.26,3.73-1.52,3.54-2.77a2.87,2.87,0,0,1,.51.68c.89,1.51-.76,3.25-3.67,3.66a74.4,74.4,0,0,1-12.11.6c-2.88-.07-4.43-2.09-3.51-4.28a5,5,0,0,1,.53-1C238.36,250.06,239.76,251.53,242,251.64Z"/><path class="cls-12" d="M243.3,246c.78.12,1.55.23,2.34.31a4.69,4.69,0,0,0-4.82,3.29c-.69,2.13,1.07,4,4,4-1.07,0-2.15,0-3.21,0-2.88-.07-4.43-2.09-3.51-4.28A5.18,5.18,0,0,1,243.3,246Z"/><path class="cls-15" d="M245.38,247.34c0,.21.28.36.56.36,2.33-.07,4.63,0,7,.1.29,0,.51-.11.51-.29h0c0-.17-.25-.34-.53-.36-2.39-.14-4.71-.22-7.05-.19-.28,0-.5.18-.47.38Z"/><path class="cls-16" d="M321.72,171.9c0,5.3,3.39,9.59,7.57,9.59h0c4.18,0,7.57-4.29,7.57-9.59V147.74c0-5.29-3.39-9.59-7.57-9.59h0c-4.18,0-7.57,4.29-7.57,9.59Z"/><path class="cls-15" d="M334.41,174.15V145.5a15.86,15.86,0,0,0-1.08-5.85,10.37,10.37,0,0,1,3.52,8.1V171.9a10.38,10.38,0,0,1-3.52,8.11A15.88,15.88,0,0,0,334.41,174.15Z"/><path class="cls-15" d="M304.61,176.72c0,7.42,4.84,13.43,12.7,13.43h0c7.85,0,14.22-6,14.22-13.43v-33.8c0-7.41-6.37-13.43-14.22-13.43h0c-7.86,0-12.7,6-12.7,13.43Z"/><path class="cls-14" d="M317.13,176.49c6,0,11.24-2.3,14.4-5.8v6c0,7.41-6.37,13.43-14.22,13.43s-12.7-6-12.7-13.43v-5.2C307.29,174.52,311.6,176.49,317.13,176.49Z"/><path class="cls-16" d="M312.56,130.31a19.64,19.64,0,0,0-1.73,8.14V181.2a19.64,19.64,0,0,0,1.73,8.14,13.51,13.51,0,0,1-9.31-12.61s.89-8.14,1-18.27a87.71,87.71,0,0,0-1-15.54A13.51,13.51,0,0,1,312.56,130.31Z"/><path class="cls-17" d="M303.25,142.92a13,13,0,0,1,4.08-9.4,16.08,16.08,0,0,0-1.63,7.09,112.71,112.71,0,0,1,1,17.66c-.15,11.51-1,20.77-1,20.77a16.12,16.12,0,0,0,1.63,7.1,13,13,0,0,1-4.08-9.41s.89-8.14,1-18.27A88,88,0,0,0,303.25,142.92Z"/><path class="cls-18" d="M327.82,140.58a1.17,1.17,0,0,0,1.34.87h0a1.24,1.24,0,0,0,.83-1.58,10.88,10.88,0,0,0-7.61-7.57,1.35,1.35,0,0,0-1.72.74h0a1.11,1.11,0,0,0,.84,1.34A9,9,0,0,1,327.82,140.58Z"/><path class="cls-16" d="M175.15,171.9c0,5.3-3.39,9.59-7.57,9.59h0c-4.18,0-7.57-4.29-7.57-9.59V147.74c0-5.29,3.39-9.59,7.57-9.59h0c4.18,0,7.57,4.29,7.57,9.59Z"/><path class="cls-15" d="M162.46,174.15V145.5a15.86,15.86,0,0,1,1.08-5.85,10.36,10.36,0,0,0-3.52,8.1V171.9a10.37,10.37,0,0,0,3.52,8.11A15.88,15.88,0,0,1,162.46,174.15Z"/><path class="cls-15" d="M192.26,176.72c0,7.42-4.84,13.43-12.7,13.43h0c-7.85,0-14.22-6-14.22-13.43v-33.8c0-7.41,6.37-13.43,14.22-13.43h0c7.86,0,12.7,6,12.7,13.43Z"/><path class="cls-14" d="M179.75,176.49c-6,0-11.25-2.3-14.4-5.8v6c0,7.41,6.37,13.43,14.22,13.43s12.7-6,12.7-13.43v-5.2C189.58,174.52,185.27,176.49,179.75,176.49Z"/><path class="cls-16" d="M184.31,130.31a19.61,19.61,0,0,1,1.73,8.14V181.2a19.6,19.6,0,0,1-1.73,8.14,13.51,13.51,0,0,0,9.31-12.61s-.89-8.14-1-18.27a87.42,87.42,0,0,1,1-15.54A13.51,13.51,0,0,0,184.31,130.31Z"/><path class="cls-17" d="M193.62,142.92a13,13,0,0,0-4.08-9.4,16.05,16.05,0,0,1,1.64,7.09,112.86,112.86,0,0,0-1,17.66c.15,11.51,1,20.77,1,20.77a16.09,16.09,0,0,1-1.64,7.1,13,13,0,0,0,4.08-9.41s-.89-8.14-1-18.27A88.14,88.14,0,0,1,193.62,142.92Z"/><path class="cls-18" d="M169,140.58a1.17,1.17,0,0,1-1.34.87h0a1.24,1.24,0,0,1-.83-1.58,10.87,10.87,0,0,1,7.61-7.57,1.36,1.36,0,0,1,1.72.74h0a1.12,1.12,0,0,1-.84,1.34A9,9,0,0,0,169,140.58Z"/><path class="cls-19" d="M213.07,78.57c3.07,1.48,8.61.75,12.77-1.08a56.67,56.67,0,0,1,46.67,0c4.16,1.83,9.71,2.56,12.78,1.08h0c3.06-1.44,1.29-5.84-4.58-8.88a68.75,68.75,0,0,0-63.07,0c-5.87,3-7.65,7.45-4.58,8.88Z"/><path class="cls-20" d="M212.84,73.53c3.09,1.47,8.68.74,12.86-1.1a57.24,57.24,0,0,1,47,0c4.19,1.83,9.77,2.57,12.86,1.1l0,0c1.65,2.17,1.63,4.17-.27,5.09C282.22,80.09,279.16,82,275,80c-14.44-7.34-38.27-7.25-52.69.19-4.11,2-6.19-.08-9.27-1.61-1.91-.91-1.93-2.92-.28-5.08Z"/><path class="cls-21" d="M233,66.38a5.63,5.63,0,0,0,3-.09,46,46,0,0,1,28.14.18,5.61,5.61,0,0,0,3,.13h0c.77-.24.53-.8-.58-1.19a51.44,51.44,0,0,0-33-.21c-1.11.38-1.36.94-.59,1.19Z"/><path class="cls-15" d="M192.52,233c-.14-.3-.4-.4-.8-.73-5.43-4.31-10.59-11.61-13.46-17.74a3.31,3.31,0,0,0-1.15-1.27h0c-.43-.25-.59,0-.34.51A57.2,57.2,0,0,0,192.07,233c.34.22.49.22.45,0Z"/><text class="cls-22" transform="translate(109.14 432.34)">ZOO Fan Support</text></svg>