<?xml version="1.0" encoding="utf-8"?>
<!-- Generator: Adobe Illustrator 15.1.0, SVG Export Plug-In . SVG Version: 6.00 Build 0)  -->
<!DOCTYPE svg PUBLIC "-//W3C//DTD SVG 1.1//EN" "http://www.w3.org/Graphics/SVG/1.1/DTD/svg11.dtd">
<svg version="1.1" id="Layer_1" xmlns="http://www.w3.org/2000/svg" xmlns:xlink="http://www.w3.org/1999/xlink" x="0px" y="0px"
	 width="252px" height="82px" viewBox="0 0 252 82" enable-background="new 0 0 252 82" xml:space="preserve">
<polygon fill="#6D6E71" points="22.102,55.31 29.849,55.31 29.208,56.918 23.294,56.918 22.171,59.705 27.653,59.705 27.045,61.224 
	21.548,61.224 20.302,64.337 26.262,64.337 25.621,65.946 17.83,65.946 "/>
<g>
	<defs>
		<rect id="SVGID_1_" x="-181" y="-349" width="612" height="792"/>
	</defs>
	<clipPath id="SVGID_2_">
		<use xlink:href="#SVGID_1_"  overflow="visible"/>
	</clipPath>
	<path clip-path="url(#SVGID_2_)" fill="#6D6E71" d="M30.373,59.511h-1.266l0.499-1.267h1.267c0.176-0.446,0.348-0.849,0.517-1.206
		c0.169-0.358,0.372-0.665,0.611-0.924c0.239-0.259,0.531-0.458,0.876-0.596c0.345-0.139,0.775-0.209,1.292-0.209
		c0.228,0,0.445,0.013,0.648,0.037c0.204,0.024,0.403,0.047,0.598,0.067l-0.535,1.296c-0.161-0.04-0.376-0.06-0.644-0.06
		c-0.288,0-0.517,0.04-0.686,0.119c-0.17,0.079-0.311,0.191-0.423,0.335c-0.112,0.145-0.207,0.313-0.284,0.507
		c-0.078,0.193-0.168,0.404-0.273,0.633h1.491l-0.5,1.267h-1.49l-2.592,6.436h-1.698L30.373,59.511z"/>
	<path clip-path="url(#SVGID_2_)" fill="#6D6E71" d="M36.272,59.511h-1.266l0.499-1.267h1.266c0.176-0.446,0.349-0.849,0.518-1.206
		c0.169-0.358,0.372-0.665,0.611-0.924c0.239-0.259,0.531-0.458,0.876-0.596c0.345-0.139,0.775-0.209,1.292-0.209
		c0.228,0,0.444,0.013,0.648,0.037c0.204,0.024,0.403,0.047,0.598,0.067l-0.535,1.296c-0.161-0.04-0.376-0.06-0.644-0.06
		c-0.288,0-0.517,0.04-0.686,0.119c-0.17,0.079-0.311,0.191-0.423,0.335c-0.112,0.145-0.207,0.313-0.284,0.507
		c-0.078,0.193-0.168,0.404-0.273,0.633h1.491l-0.5,1.267h-1.49l-2.592,6.436H33.68L36.272,59.511z"/>
	<path clip-path="url(#SVGID_2_)" fill="#6D6E71" d="M41.657,58.244h1.699l-3.091,7.702h-1.698L41.657,58.244z M42.839,55.31h1.683
		l-0.641,1.608h-1.683L42.839,55.31z"/>
	<path clip-path="url(#SVGID_2_)" fill="#6D6E71" d="M49.162,60.792c0.112-0.477,0.052-0.831-0.181-1.065
		c-0.232-0.233-0.587-0.351-1.063-0.351c-0.427,0-0.821,0.11-1.181,0.328c-0.361,0.219-0.678,0.497-0.952,0.834
		c-0.274,0.338-0.503,0.708-0.685,1.11c-0.183,0.402-0.31,0.787-0.381,1.154c-0.056,0.288-0.078,0.554-0.066,0.797
		c0.013,0.243,0.069,0.454,0.168,0.633c0.099,0.18,0.248,0.321,0.446,0.426c0.198,0.104,0.456,0.155,0.774,0.155
		c0.507,0,0.947-0.134,1.322-0.401c0.375-0.269,0.678-0.641,0.91-1.118h1.699c-0.472,0.994-1.079,1.719-1.824,2.176
		c-0.744,0.457-1.628,0.685-2.651,0.685c-0.506,0-0.937-0.079-1.294-0.238c-0.356-0.158-0.638-0.385-0.844-0.678
		c-0.206-0.293-0.34-0.641-0.401-1.043c-0.061-0.401-0.044-0.846,0.051-1.332c0.125-0.646,0.344-1.262,0.657-1.848
		c0.312-0.586,0.7-1.101,1.164-1.543c0.463-0.44,0.99-0.791,1.582-1.05c0.591-0.258,1.23-0.387,1.915-0.387
		c0.427,0,0.818,0.059,1.172,0.179c0.354,0.118,0.648,0.292,0.882,0.521c0.233,0.229,0.396,0.517,0.487,0.863
		c0.091,0.348,0.089,0.745-0.008,1.192H49.162z"/>
	<path clip-path="url(#SVGID_2_)" fill="#6D6E71" d="M53.709,58.244h1.698l-3.091,7.702h-1.698L53.709,58.244z M54.891,55.31h1.683
		l-0.64,1.608H54.25L54.891,55.31z"/>
	<path clip-path="url(#SVGID_2_)" fill="#6D6E71" d="M62.358,63.563c-0.444,0.903-1.023,1.561-1.739,1.973s-1.54,0.618-2.474,0.618
		c-0.487,0-0.921-0.076-1.303-0.23c-0.382-0.152-0.694-0.377-0.935-0.67c-0.241-0.293-0.406-0.646-0.494-1.059
		c-0.089-0.412-0.082-0.881,0.02-1.407c0.116-0.596,0.323-1.177,0.622-1.743c0.298-0.566,0.672-1.072,1.122-1.52
		c0.449-0.446,0.966-0.807,1.551-1.08c0.584-0.272,1.219-0.409,1.904-0.409c0.685,0,1.219,0.114,1.602,0.343
		c0.383,0.228,0.659,0.518,0.83,0.864s0.258,0.729,0.261,1.146c0.004,0.417-0.031,0.814-0.104,1.191
		c-0.037,0.19-0.081,0.363-0.132,0.522c-0.051,0.158-0.099,0.303-0.143,0.432H57.21c-0.02,0.05-0.035,0.094-0.048,0.134
		c-0.013,0.039-0.023,0.079-0.031,0.119l-0.046,0.238c-0.105,0.537-0.047,0.968,0.173,1.296c0.219,0.327,0.656,0.492,1.312,0.492
		c0.457,0,0.869-0.104,1.238-0.313c0.368-0.208,0.652-0.521,0.853-0.938H62.358z M61.539,61.418c0.02-0.051,0.033-0.093,0.04-0.127
		c0.006-0.035,0.014-0.072,0.021-0.111l0.046-0.239c0.089-0.456,0.018-0.831-0.213-1.125c-0.231-0.292-0.6-0.439-1.106-0.439
		c-0.636,0-1.179,0.191-1.631,0.574c-0.452,0.382-0.82,0.871-1.105,1.468H61.539z"/>
	<path clip-path="url(#SVGID_2_)" fill="#6D6E71" d="M66.148,58.244h1.594l-0.455,1.117l0.023,0.029
		c0.391-0.426,0.841-0.759,1.349-0.997c0.508-0.238,1.031-0.357,1.567-0.357c0.775,0,1.307,0.184,1.598,0.551
		s0.376,0.864,0.255,1.49c-0.027,0.139-0.063,0.297-0.108,0.477c-0.045,0.179-0.095,0.337-0.153,0.476l-1.982,4.917h-1.699
		l1.907-4.753c0.055-0.128,0.106-0.253,0.154-0.372c0.048-0.119,0.083-0.232,0.104-0.343c0.012-0.059,0.027-0.151,0.046-0.275
		c0.019-0.124,0.006-0.248-0.039-0.372c-0.046-0.124-0.141-0.231-0.288-0.32c-0.147-0.09-0.374-0.135-0.682-0.135
		c-0.337,0-0.651,0.073-0.943,0.217c-0.291,0.144-0.561,0.32-0.81,0.528c-0.237,0.199-0.457,0.444-0.657,0.737
		c-0.202,0.293-0.368,0.599-0.499,0.917l-1.675,4.171h-1.698L66.148,58.244z"/>
	<path clip-path="url(#SVGID_2_)" fill="#6D6E71" d="M79.001,60.792c0.113-0.477,0.052-0.831-0.18-1.065
		c-0.233-0.233-0.588-0.351-1.064-0.351c-0.427,0-0.821,0.11-1.181,0.328c-0.361,0.219-0.678,0.497-0.952,0.834
		c-0.274,0.338-0.502,0.708-0.685,1.11c-0.182,0.402-0.309,0.787-0.381,1.154c-0.056,0.288-0.078,0.554-0.065,0.797
		c0.012,0.243,0.068,0.454,0.167,0.633c0.099,0.18,0.248,0.321,0.446,0.426c0.199,0.104,0.457,0.155,0.774,0.155
		c0.507,0,0.948-0.134,1.322-0.401c0.375-0.269,0.678-0.641,0.911-1.118h1.698c-0.471,0.994-1.079,1.719-1.823,2.176
		c-0.745,0.457-1.628,0.685-2.651,0.685c-0.507,0-0.938-0.079-1.294-0.238c-0.357-0.158-0.639-0.385-0.845-0.678
		c-0.206-0.293-0.34-0.641-0.401-1.043c-0.06-0.401-0.044-0.846,0.051-1.332c0.126-0.646,0.345-1.262,0.657-1.848
		c0.313-0.586,0.701-1.101,1.164-1.543c0.463-0.44,0.991-0.791,1.582-1.05c0.592-0.258,1.23-0.387,1.915-0.387
		c0.427,0,0.818,0.059,1.172,0.179c0.354,0.118,0.648,0.292,0.882,0.521c0.234,0.229,0.396,0.517,0.488,0.863
		c0.091,0.348,0.088,0.745-0.009,1.192H79.001z"/>
	<path clip-path="url(#SVGID_2_)" fill="#6D6E71" d="M82.565,58.244h1.788l-0.291,5.632h0.03l4-5.632h1.817l-5.953,7.94
		c-0.27,0.367-0.532,0.72-0.787,1.058c-0.254,0.338-0.528,0.638-0.823,0.901c-0.294,0.263-0.62,0.472-0.978,0.626
		c-0.358,0.153-0.775,0.231-1.252,0.231c-0.287,0-0.622-0.041-1.004-0.12l0.588-1.415c0.104,0.029,0.207,0.058,0.312,0.081
		c0.104,0.025,0.211,0.038,0.32,0.038c0.258,0,0.488-0.047,0.691-0.142c0.202-0.096,0.381-0.266,0.539-0.514l0.911-1.236
		L82.565,58.244z"/>
	<path clip-path="url(#SVGID_2_)" fill="#6D6E71" d="M99.901,63.712c-0.057,0.14-0.116,0.272-0.175,0.402
		c-0.061,0.129-0.101,0.248-0.122,0.357c-0.022,0.109-0.013,0.193,0.025,0.253c0.038,0.06,0.127,0.089,0.266,0.089
		c0.099,0,0.201-0.012,0.305-0.037c0.104-0.023,0.207-0.042,0.308-0.052l-0.506,1.222c-0.228,0.049-0.456,0.097-0.682,0.142
		c-0.228,0.044-0.456,0.066-0.684,0.066c-0.288,0-0.509-0.089-0.662-0.268c-0.155-0.179-0.212-0.417-0.175-0.715
		c-0.403,0.337-0.848,0.586-1.336,0.744c-0.488,0.159-0.97,0.238-1.447,0.238c-0.318,0-0.612-0.044-0.882-0.134
		c-0.271-0.089-0.502-0.218-0.693-0.387c-0.19-0.169-0.325-0.383-0.404-0.642c-0.079-0.258-0.085-0.556-0.02-0.894
		c0.093-0.477,0.26-0.876,0.501-1.198c0.242-0.323,0.532-0.589,0.871-0.797c0.338-0.209,0.711-0.363,1.117-0.463
		c0.407-0.1,0.826-0.163,1.26-0.193c0.583-0.039,1.158-0.085,1.724-0.134c0.312-0.021,0.557-0.122,0.737-0.306
		c0.179-0.184,0.297-0.419,0.353-0.708c0.072-0.366-0.01-0.612-0.243-0.737c-0.235-0.124-0.526-0.187-0.873-0.187
		c-0.477,0-0.903,0.083-1.277,0.247c-0.374,0.163-0.668,0.483-0.879,0.96h-1.609c0.182-0.477,0.413-0.876,0.694-1.199
		c0.282-0.322,0.601-0.586,0.959-0.789c0.357-0.204,0.745-0.348,1.164-0.433c0.419-0.084,0.856-0.126,1.313-0.126
		c0.695,0,1.226,0.067,1.592,0.2c0.366,0.135,0.623,0.296,0.77,0.484c0.147,0.189,0.221,0.386,0.221,0.59
		c0,0.203-0.013,0.375-0.04,0.513c-0.066,0.338-0.191,0.726-0.375,1.162L99.901,63.712z M94.768,63.831
		c-0.037,0.188-0.025,0.345,0.035,0.469c0.06,0.125,0.148,0.224,0.263,0.298c0.114,0.075,0.247,0.13,0.4,0.164
		c0.152,0.035,0.307,0.052,0.466,0.052c0.418,0,0.781-0.069,1.091-0.208s0.58-0.327,0.81-0.565c0.23-0.239,0.429-0.52,0.596-0.843
		c0.167-0.322,0.316-0.667,0.447-1.035l-0.024-0.03c-0.142,0.12-0.318,0.204-0.526,0.254s-0.409,0.084-0.601,0.104
		c-0.243,0.021-0.522,0.04-0.839,0.06c-0.316,0.02-0.619,0.072-0.909,0.156c-0.29,0.085-0.548,0.213-0.775,0.387
		C94.974,63.268,94.83,63.514,94.768,63.831"/>
	<path clip-path="url(#SVGID_2_)" fill="#6D6E71" d="M104.271,58.244h1.594l-0.455,1.117l0.024,0.029
		c0.39-0.426,0.84-0.759,1.348-0.997c0.509-0.238,1.031-0.357,1.567-0.357c0.775,0,1.307,0.184,1.598,0.551
		c0.292,0.367,0.376,0.864,0.255,1.49c-0.027,0.139-0.063,0.297-0.108,0.477c-0.045,0.179-0.095,0.337-0.152,0.476l-1.983,4.917
		h-1.699l1.907-4.753c0.055-0.128,0.106-0.253,0.154-0.372c0.048-0.119,0.083-0.232,0.104-0.343
		c0.012-0.059,0.027-0.151,0.047-0.275c0.018-0.124,0.006-0.248-0.04-0.372c-0.045-0.124-0.141-0.231-0.288-0.32
		c-0.146-0.09-0.373-0.135-0.681-0.135c-0.338,0-0.652,0.073-0.943,0.217c-0.292,0.144-0.562,0.32-0.811,0.528
		c-0.237,0.199-0.457,0.444-0.657,0.737c-0.201,0.293-0.367,0.599-0.499,0.917l-1.675,4.171h-1.698L104.271,58.244z"/>
	<path clip-path="url(#SVGID_2_)" fill="#6D6E71" d="M116.608,65.946h-1.624l0.441-1.043l-0.024-0.029
		c-0.434,0.495-0.872,0.834-1.314,1.013s-0.892,0.268-1.348,0.268c-0.219,0-0.491-0.029-0.817-0.089s-0.63-0.196-0.911-0.409
		c-0.281-0.215-0.495-0.529-0.643-0.946c-0.147-0.417-0.151-0.988-0.009-1.714c0.121-0.627,0.333-1.233,0.637-1.824
		c0.304-0.591,0.68-1.12,1.128-1.587c0.448-0.467,0.958-0.842,1.53-1.125c0.571-0.282,1.189-0.425,1.855-0.425
		c0.516,0,0.964,0.096,1.345,0.284c0.381,0.188,0.625,0.516,0.733,0.982h0.03l1.625-3.992h1.698L116.608,65.946z M116.796,61.224
		c0.048-0.248,0.062-0.486,0.042-0.715s-0.081-0.425-0.184-0.589c-0.102-0.163-0.253-0.295-0.452-0.395
		c-0.198-0.1-0.447-0.149-0.745-0.149c-0.477,0-0.905,0.107-1.284,0.321c-0.379,0.213-0.712,0.493-0.998,0.841
		s-0.523,0.738-0.712,1.17c-0.188,0.433-0.323,0.861-0.406,1.288c-0.112,0.576-0.055,1.023,0.171,1.341
		c0.226,0.318,0.638,0.477,1.234,0.477c0.436,0,0.841-0.113,1.213-0.342s0.704-0.52,0.996-0.872s0.534-0.739,0.726-1.162
		C116.588,62.016,116.721,61.611,116.796,61.224"/>
	<path clip-path="url(#SVGID_2_)" fill="#6D6E71" d="M128.334,55.31h4.275c0.556,0,1.012,0.056,1.367,0.172
		c0.354,0.113,0.639,0.263,0.852,0.446c0.212,0.184,0.363,0.393,0.45,0.626c0.091,0.232,0.142,0.469,0.154,0.707
		s0.003,0.473-0.031,0.7c-0.035,0.229-0.068,0.428-0.102,0.597c-0.002,0.01-0.026,0.101-0.074,0.269s-0.133,0.373-0.254,0.617
		c-0.122,0.244-0.29,0.506-0.504,0.789c-0.214,0.284-0.488,0.547-0.823,0.79c-0.336,0.243-0.741,0.444-1.213,0.604
		c-0.473,0.158-1.032,0.238-1.678,0.238h-3.188l-1.643,4.082h-1.863L128.334,55.31z M128.175,60.345h2.815
		c0.417,0,0.773-0.062,1.071-0.187c0.297-0.123,0.542-0.285,0.734-0.483c0.192-0.199,0.345-0.42,0.457-0.663
		c0.111-0.243,0.19-0.484,0.237-0.723c0.028-0.148,0.037-0.308,0.025-0.477s-0.065-0.328-0.16-0.478
		c-0.096-0.148-0.251-0.27-0.466-0.364s-0.512-0.142-0.889-0.142h-2.413L128.175,60.345z"/>
	<path clip-path="url(#SVGID_2_)" fill="#6D6E71" d="M141.91,63.563c-0.444,0.903-1.023,1.561-1.739,1.973s-1.541,0.618-2.476,0.618
		c-0.485,0-0.92-0.076-1.302-0.23c-0.383-0.152-0.694-0.377-0.935-0.67c-0.241-0.293-0.406-0.646-0.495-1.059
		s-0.082-0.881,0.021-1.407c0.116-0.596,0.323-1.177,0.622-1.743c0.298-0.566,0.673-1.072,1.122-1.52
		c0.449-0.446,0.965-0.807,1.551-1.08c0.584-0.272,1.219-0.409,1.904-0.409s1.218,0.114,1.602,0.343
		c0.383,0.228,0.658,0.518,0.83,0.864c0.171,0.347,0.258,0.729,0.262,1.146c0.003,0.417-0.031,0.814-0.104,1.191
		c-0.037,0.19-0.081,0.363-0.132,0.522c-0.051,0.158-0.099,0.303-0.144,0.432h-5.735c-0.02,0.05-0.036,0.094-0.048,0.134
		c-0.014,0.039-0.023,0.079-0.031,0.119l-0.046,0.238c-0.104,0.537-0.047,0.968,0.172,1.296c0.219,0.327,0.657,0.492,1.312,0.492
		c0.457,0,0.87-0.104,1.238-0.313c0.368-0.208,0.652-0.521,0.853-0.938H141.91z M141.09,61.418c0.021-0.051,0.033-0.093,0.04-0.127
		c0.007-0.035,0.014-0.072,0.021-0.111l0.047-0.239c0.089-0.456,0.018-0.831-0.214-1.125c-0.231-0.292-0.6-0.439-1.106-0.439
		c-0.635,0-1.179,0.191-1.631,0.574c-0.451,0.382-0.819,0.871-1.104,1.468H141.09z"/>
	<path clip-path="url(#SVGID_2_)" fill="#6D6E71" d="M145.7,58.244h1.608l-0.605,1.505l0.024,0.029
		c0.159-0.208,0.347-0.417,0.561-0.625c0.215-0.209,0.442-0.395,0.683-0.559s0.492-0.299,0.756-0.402
		c0.264-0.104,0.529-0.156,0.798-0.156c0.139,0,0.275,0.002,0.408,0.007s0.268,0.018,0.402,0.037l-0.673,1.624
		c-0.096-0.02-0.192-0.034-0.29-0.044c-0.097-0.01-0.195-0.016-0.294-0.016c-0.438,0-0.833,0.077-1.185,0.231
		c-0.354,0.154-0.668,0.365-0.943,0.633s-0.517,0.576-0.723,0.923c-0.207,0.349-0.388,0.716-0.542,1.104l-1.379,3.411h-1.697
		L145.7,58.244z"/>
	<path clip-path="url(#SVGID_2_)" fill="#6D6E71" d="M152.396,59.511h-1.267l0.499-1.267h1.267c0.176-0.446,0.349-0.849,0.518-1.206
		c0.169-0.358,0.372-0.665,0.611-0.924s0.53-0.458,0.876-0.596c0.345-0.139,0.775-0.209,1.292-0.209
		c0.229,0,0.444,0.013,0.648,0.037c0.203,0.024,0.402,0.047,0.597,0.067l-0.534,1.296c-0.161-0.04-0.376-0.06-0.644-0.06
		c-0.288,0-0.518,0.04-0.687,0.119c-0.17,0.079-0.311,0.191-0.423,0.335c-0.112,0.145-0.207,0.313-0.284,0.507
		c-0.078,0.193-0.168,0.404-0.272,0.633h1.491l-0.5,1.267h-1.49l-2.592,6.436h-1.698L152.396,59.511z"/>
	<path clip-path="url(#SVGID_2_)" fill="#6D6E71" d="M158.163,66.154c-1.073,0-1.846-0.29-2.318-0.871
		c-0.474-0.581-0.604-1.412-0.395-2.495c0.124-0.636,0.346-1.238,0.665-1.81c0.32-0.572,0.713-1.075,1.181-1.513
		c0.467-0.437,0.996-0.784,1.587-1.043c0.592-0.258,1.221-0.387,1.886-0.387c1.072,0,1.848,0.28,2.325,0.841
		c0.477,0.562,0.61,1.384,0.399,2.467c-0.131,0.675-0.354,1.305-0.666,1.891c-0.312,0.587-0.702,1.096-1.168,1.527
		c-0.467,0.432-0.994,0.772-1.584,1.021S158.848,66.154,158.163,66.154 M160.404,59.376c-0.438,0-0.839,0.11-1.203,0.328
		c-0.365,0.219-0.69,0.494-0.973,0.827c-0.283,0.333-0.517,0.702-0.7,1.109s-0.312,0.805-0.388,1.192
		c-0.11,0.565-0.061,1.038,0.148,1.415c0.21,0.378,0.623,0.565,1.239,0.565c0.437,0,0.837-0.106,1.201-0.319
		c0.364-0.214,0.688-0.487,0.972-0.82c0.282-0.332,0.516-0.704,0.701-1.116c0.185-0.411,0.313-0.812,0.39-1.2
		c0.109-0.565,0.061-1.037-0.149-1.415C161.433,59.565,161.021,59.376,160.404,59.376"/>
	<path clip-path="url(#SVGID_2_)" fill="#6D6E71" d="M166.511,58.244h1.609l-0.605,1.505l0.024,0.029
		c0.158-0.208,0.346-0.417,0.561-0.625c0.214-0.209,0.442-0.395,0.682-0.559c0.241-0.164,0.493-0.299,0.757-0.402
		c0.264-0.104,0.529-0.156,0.798-0.156c0.139,0,0.274,0.002,0.407,0.007c0.134,0.005,0.268,0.018,0.403,0.037l-0.674,1.624
		c-0.096-0.02-0.191-0.034-0.289-0.044s-0.195-0.016-0.295-0.016c-0.438,0-0.832,0.077-1.185,0.231s-0.667,0.365-0.942,0.633
		s-0.517,0.576-0.723,0.923c-0.207,0.349-0.388,0.716-0.542,1.104l-1.379,3.411h-1.698L166.511,58.244z"/>
	<path clip-path="url(#SVGID_2_)" fill="#6D6E71" d="M173.319,58.244h1.609l-0.436,1.088l0.024,0.029
		c0.398-0.417,0.847-0.742,1.344-0.976s1.014-0.35,1.551-0.35c0.477,0,0.874,0.102,1.192,0.305c0.317,0.204,0.481,0.56,0.492,1.065
		c0.425-0.397,0.876-0.726,1.354-0.983c0.477-0.258,0.984-0.387,1.521-0.387c0.744,0,1.26,0.184,1.546,0.551s0.369,0.864,0.247,1.49
		c-0.027,0.139-0.07,0.297-0.131,0.477c-0.059,0.179-0.117,0.337-0.174,0.476l-1.938,4.917h-1.698l1.84-4.559
		c0.036-0.09,0.089-0.216,0.155-0.38c0.065-0.164,0.123-0.34,0.17-0.529c0.024-0.129,0.038-0.26,0.039-0.395
		c0.001-0.134-0.027-0.253-0.087-0.357c-0.06-0.104-0.151-0.188-0.278-0.254c-0.127-0.063-0.299-0.097-0.518-0.097
		c-0.327,0-0.631,0.067-0.91,0.201c-0.279,0.135-0.531,0.304-0.754,0.507c-0.224,0.204-0.416,0.427-0.577,0.67
		c-0.162,0.244-0.284,0.475-0.366,0.693l-1.812,4.499h-1.698l1.701-4.231c0.078-0.197,0.169-0.422,0.271-0.67
		s0.176-0.486,0.221-0.715c0.051-0.258,0.027-0.482-0.07-0.67c-0.098-0.189-0.325-0.284-0.684-0.284c-0.326,0-0.619,0.06-0.875,0.18
		c-0.257,0.119-0.486,0.263-0.688,0.432c-0.202,0.169-0.418,0.386-0.647,0.648c-0.23,0.263-0.409,0.549-0.54,0.856l-1.788,4.454
		h-1.698L173.319,58.244z"/>
	<path clip-path="url(#SVGID_2_)" fill="#6D6E71" d="M190.952,63.712c-0.057,0.14-0.115,0.272-0.175,0.402
		c-0.061,0.129-0.101,0.248-0.122,0.357c-0.021,0.109-0.013,0.193,0.025,0.253s0.127,0.089,0.266,0.089
		c0.1,0,0.201-0.012,0.306-0.037c0.104-0.023,0.207-0.042,0.308-0.052l-0.505,1.222c-0.229,0.049-0.456,0.097-0.684,0.142
		c-0.227,0.044-0.455,0.066-0.684,0.066c-0.288,0-0.509-0.089-0.662-0.268c-0.154-0.179-0.212-0.417-0.174-0.715
		c-0.403,0.337-0.85,0.586-1.337,0.744c-0.488,0.159-0.97,0.238-1.447,0.238c-0.317,0-0.611-0.044-0.882-0.134
		c-0.271-0.089-0.502-0.218-0.692-0.387s-0.325-0.383-0.404-0.642c-0.079-0.258-0.086-0.556-0.02-0.894
		c0.092-0.477,0.26-0.876,0.501-1.198c0.241-0.323,0.531-0.589,0.87-0.797c0.339-0.209,0.711-0.363,1.117-0.463
		c0.407-0.1,0.827-0.163,1.26-0.193c0.583-0.039,1.158-0.085,1.724-0.134c0.312-0.021,0.558-0.122,0.738-0.306
		c0.179-0.184,0.297-0.419,0.353-0.708c0.072-0.366-0.01-0.612-0.243-0.737c-0.234-0.124-0.525-0.187-0.873-0.187
		c-0.477,0-0.902,0.083-1.276,0.247c-0.375,0.163-0.668,0.483-0.88,0.96h-1.608c0.182-0.477,0.413-0.876,0.694-1.199
		c0.281-0.322,0.601-0.586,0.958-0.789c0.357-0.204,0.745-0.348,1.164-0.433c0.419-0.084,0.855-0.126,1.313-0.126
		c0.695,0,1.226,0.067,1.592,0.2c0.366,0.135,0.623,0.296,0.771,0.484c0.146,0.189,0.221,0.386,0.221,0.59
		c0,0.203-0.014,0.375-0.041,0.513c-0.065,0.338-0.19,0.726-0.375,1.162L190.952,63.712z M185.819,63.831
		c-0.036,0.188-0.024,0.345,0.035,0.469c0.061,0.125,0.148,0.224,0.263,0.298c0.114,0.075,0.248,0.13,0.4,0.164
		c0.152,0.035,0.308,0.052,0.467,0.052c0.417,0,0.78-0.069,1.091-0.208c0.31-0.139,0.58-0.327,0.81-0.565
		c0.23-0.239,0.429-0.52,0.596-0.843c0.167-0.322,0.316-0.667,0.447-1.035l-0.024-0.03c-0.142,0.12-0.317,0.204-0.525,0.254
		s-0.409,0.084-0.602,0.104c-0.242,0.021-0.521,0.04-0.838,0.06c-0.317,0.02-0.62,0.072-0.91,0.156
		c-0.289,0.085-0.548,0.213-0.774,0.387C186.025,63.268,185.881,63.514,185.819,63.831"/>
	<path clip-path="url(#SVGID_2_)" fill="#6D6E71" d="M195.938,58.244h1.594l-0.455,1.117l0.023,0.029
		c0.391-0.426,0.841-0.759,1.349-0.997s1.03-0.357,1.566-0.357c0.775,0,1.308,0.184,1.599,0.551s0.376,0.864,0.255,1.49
		c-0.027,0.139-0.063,0.297-0.107,0.477c-0.045,0.179-0.096,0.337-0.152,0.476l-1.982,4.917h-1.7l1.908-4.753
		c0.054-0.128,0.105-0.253,0.153-0.372s0.083-0.232,0.104-0.343c0.011-0.059,0.026-0.151,0.046-0.275
		c0.019-0.124,0.006-0.248-0.04-0.372c-0.045-0.124-0.14-0.231-0.287-0.32c-0.146-0.09-0.374-0.135-0.682-0.135
		c-0.337,0-0.652,0.073-0.943,0.217s-0.562,0.32-0.812,0.528c-0.236,0.199-0.455,0.444-0.656,0.737s-0.367,0.599-0.498,0.917
		l-1.675,4.171h-1.698L195.938,58.244z"/>
	<path clip-path="url(#SVGID_2_)" fill="#6D6E71" d="M208.546,60.792c0.112-0.477,0.052-0.831-0.181-1.065
		c-0.232-0.233-0.587-0.351-1.063-0.351c-0.427,0-0.821,0.11-1.182,0.328c-0.36,0.219-0.679,0.497-0.951,0.834
		c-0.274,0.338-0.503,0.708-0.685,1.11c-0.183,0.402-0.31,0.787-0.382,1.154c-0.056,0.288-0.078,0.554-0.065,0.797
		s0.068,0.454,0.168,0.633c0.1,0.18,0.248,0.321,0.445,0.426c0.199,0.104,0.457,0.155,0.774,0.155c0.507,0,0.947-0.134,1.322-0.401
		c0.375-0.269,0.679-0.641,0.91-1.118h1.698c-0.471,0.994-1.08,1.719-1.823,2.176c-0.744,0.457-1.628,0.685-2.65,0.685
		c-0.507,0-0.938-0.079-1.295-0.238c-0.356-0.158-0.638-0.385-0.844-0.678s-0.34-0.641-0.4-1.043
		c-0.062-0.401-0.045-0.846,0.05-1.332c0.126-0.646,0.345-1.262,0.657-1.848s0.7-1.101,1.164-1.543
		c0.463-0.44,0.99-0.791,1.582-1.05c0.592-0.258,1.229-0.387,1.915-0.387c0.427,0,0.817,0.059,1.172,0.179
		c0.354,0.118,0.648,0.292,0.882,0.521c0.233,0.229,0.396,0.517,0.488,0.863c0.091,0.348,0.088,0.745-0.009,1.192H208.546z"/>
	<path clip-path="url(#SVGID_2_)" fill="#6D6E71" d="M217.711,63.563c-0.443,0.903-1.024,1.561-1.739,1.973
		c-0.716,0.412-1.541,0.618-2.474,0.618c-0.487,0-0.922-0.076-1.304-0.23c-0.382-0.152-0.693-0.377-0.935-0.67
		c-0.242-0.293-0.406-0.646-0.495-1.059c-0.088-0.412-0.082-0.881,0.021-1.407c0.115-0.596,0.323-1.177,0.622-1.743
		s0.673-1.072,1.122-1.52c0.449-0.446,0.966-0.807,1.551-1.08c0.584-0.272,1.219-0.409,1.904-0.409s1.219,0.114,1.603,0.343
		c0.382,0.228,0.658,0.518,0.83,0.864c0.171,0.347,0.257,0.729,0.261,1.146c0.003,0.417-0.032,0.814-0.105,1.191
		c-0.036,0.19-0.08,0.363-0.131,0.522c-0.051,0.158-0.099,0.303-0.144,0.432h-5.735c-0.02,0.05-0.036,0.094-0.048,0.134
		c-0.014,0.039-0.023,0.079-0.031,0.119l-0.046,0.238c-0.104,0.537-0.047,0.968,0.173,1.296c0.22,0.327,0.656,0.492,1.312,0.492
		c0.457,0,0.869-0.104,1.238-0.313c0.367-0.208,0.652-0.521,0.853-0.938H217.711z M216.892,61.418
		c0.02-0.051,0.032-0.093,0.039-0.127c0.007-0.035,0.014-0.072,0.021-0.111l0.047-0.239c0.089-0.456,0.018-0.831-0.213-1.125
		c-0.231-0.292-0.601-0.439-1.106-0.439c-0.637,0-1.18,0.191-1.632,0.574c-0.451,0.382-0.819,0.871-1.104,1.468H216.892z"/>
	<path clip-path="url(#SVGID_2_)" fill="#006EB7" d="M55.009,41.179H34.908l26.58-25.285H29.226l-5.782,5.359h18.27L15.153,46.627
		h38.573c0.667,0,1.295-0.364,1.913-1.03c0.606-0.698,0.93-1.418,0.995-2.218c0.034-0.64-0.106-1.17-0.418-1.589
		C55.927,41.37,55.527,41.179,55.009,41.179"/>
	<path clip-path="url(#SVGID_2_)" fill="#006EB7" d="M134.691,35.483l1.803-4.562h15.873l1.337-3.412h-19.271l-7.642,19.255h3.392
		l3.146-7.898h15.873l1.339-3.383H134.691z M165.123,27.509l-18.78,19.255h3.902l3.274-3.316h13.801l0.668,3.316h3.877
		l-3.477-19.255H165.123z M156.845,40.039l8.316-8.568l1.565,8.568H156.845z M194.67,41.738l-9.463-14.229h-3.056l-7.68,19.255
		h3.422l5.633-14.168l9.458,14.168h3.094l7.618-19.255h-3.424L194.67,41.738z M217.455,30.9c2.735,0,4.454,0.049,5.229,0.154
		c2.221,0.287,3.331,0.994,3.345,2.135l3.584-0.81c0.281-2.18-0.821-3.606-3.193-4.291c-1.272-0.381-3.529-0.579-6.751-0.579
		c-3.325,0-5.884,0.244-7.741,0.716c-3.283,0.85-5.442,2.499-6.422,4.964c-1.509,3.798,1.536,5.677,9.046,5.677
		c2.593,0,4.288,0.031,5.117,0.138c2.516,0.349,3.555,1.046,3.109,2.141c-0.594,1.514-3.438,2.303-8.515,2.303
		c-2.692,0-4.372-0.06-5.174-0.186c-2.209-0.28-3.354-0.986-3.425-2.076l-3.658,0.896c-0.167,2.022,0.866,3.392,3.065,4.096
		c1.286,0.374,3.458,0.586,6.329,0.586c3.624,0,6.289-0.193,8.04-0.553c3.497-0.822,5.724-2.517,6.748-5.066
		c1.483-3.75-1.578-5.662-9.258-5.662c-2.47,0-4.16-0.078-5.018-0.175c-2.456-0.281-3.451-1.027-3.01-2.119
		C209.533,31.66,212.393,30.9,217.455,30.9"/>
	<path clip-path="url(#SVGID_2_)" fill="#006EB7" d="M233.23,29.498v2.193h-0.477v-2.193h-0.801v-0.467h2.086v0.467H233.23z
		 M237.036,31.691v-2.072h-0.027l-0.781,2.072h-0.326l-0.785-2.072h-0.056v2.072h-0.447v-2.66h0.724l0.745,1.965l0.748-1.965h0.719
		v2.66H237.036z"/>
	<path clip-path="url(#SVGID_2_)" fill="#006EB7" d="M62.579,22.367c-0.11-0.429-0.194-0.697-0.685-0.507
		c-3.312,1.285-5.033,6.893-4.815,7.593c0.022,0.032,0.04,0.059,0.062,0.092c2.533,2.901,7.683,3.077,7.683,3.077
		s1.045,0.03,2.044-0.183c0.052-1.011,0.405-2.071,1.034-3.049C65.961,28.244,63.116,24.456,62.579,22.367"/>
	<path clip-path="url(#SVGID_2_)" fill="#006EB7" d="M74.714,16.399c-2.791-1.471-8.32,1.478-8.784,2.164
		c-0.016,0.041-0.029,0.074-0.044,0.115c-1.073,4.044,1.47,7.966,1.47,7.966s0.615,0.943,1.408,1.518
		c0.179-0.179,0.367-0.353,0.569-0.518c0.719-0.586,1.503-1.001,2.296-1.274c-0.014-2.335,1.602-7.153,3.023-9.086
		C74.949,16.881,75.127,16.617,74.714,16.399"/>
	<path clip-path="url(#SVGID_2_)" fill="#006EB7" d="M79.192,17.217c-3.53,1.98-5.382,6.4-5.665,8.818
		c1.246-0.042,2.399,0.339,3.226,1.176c2.247-1.592,6.804-3.473,9.004-3.693c0.486-0.049,0.798-0.094,0.814-0.571
		C86.676,19.725,81.143,17.228,79.192,17.217"/>
	<path clip-path="url(#SVGID_2_)" fill="#006EB7" d="M87.798,27.399c-0.035-0.02-0.063-0.036-0.098-0.055
		c-3.653-1.492-8.675,0.423-8.675,0.423s-0.831,0.321-1.632,0.813c0.399,0.954,0.459,2.087,0.182,3.233
		c2.378,0.285,6.556,2.366,7.92,3.925c0.286,0.326,0.481,0.525,0.871,0.163C89.007,33.46,88.301,27.917,87.798,27.399"/>
	<path clip-path="url(#SVGID_2_)" fill="#006EB7" d="M83.974,40.287c-0.632-3.947-4.696-6.398-4.696-6.398s-1.017-0.611-2.036-0.797
		c-0.314,0.583-0.714,1.147-1.209,1.664c-0.278,0.289-0.572,0.546-0.875,0.78c1.057,1.877,1.543,7.011,0.947,9.336
		c-0.119,0.466-0.182,0.765,0.306,0.797c3.293,0.214,7.404-4.487,7.568-5.265C83.977,40.363,83.976,40.328,83.974,40.287"/>
	<path clip-path="url(#SVGID_2_)" fill="#006EB7" d="M73.674,36.095c-1.076,0.556-2.208,0.781-3.251,0.658
		c-1.277,2.321-4.849,6.131-6.888,7.345c-0.437,0.261-0.711,0.439-0.498,0.841c1.443,2.71,7.279,2.331,7.991,1.869
		c0.032-0.033,0.06-0.06,0.092-0.093c2.895-3.477,2.892-8.479,2.892-8.479S74.008,37.02,73.674,36.095"/>
	<path clip-path="url(#SVGID_2_)" fill="#006EB7" d="M68.073,35.664c-0.523-0.511-0.865-1.149-1.043-1.852
		c-2.522,0.715-7.394,0.73-9.384,0.029c-0.426-0.15-0.705-0.233-0.931,0.23c-1.526,3.127,1.616,7.413,2.341,7.63
		c0.043,0.001,0.079,0.003,0.121,0.004c4.26-0.299,8.365-3.989,8.365-3.989s0.743-0.67,1.331-1.46
		C68.585,36.096,68.315,35.899,68.073,35.664"/>
	<path clip-path="url(#SVGID_2_)" fill="#006EB7" d="M95.614,22.367c-0.11-0.429-0.194-0.697-0.685-0.507
		c-3.312,1.285-5.033,6.893-4.815,7.593c0.022,0.032,0.041,0.059,0.062,0.092c2.533,2.901,7.684,3.077,7.684,3.077
		s1.044,0.03,2.044-0.183c0.051-1.011,0.404-2.071,1.034-3.049C98.996,28.244,96.151,24.456,95.614,22.367"/>
	<path clip-path="url(#SVGID_2_)" fill="#006EB7" d="M107.749,16.399c-2.791-1.471-8.32,1.478-8.784,2.164
		c-0.015,0.041-0.029,0.074-0.044,0.115c-1.073,4.044,1.47,7.966,1.47,7.966s0.615,0.943,1.408,1.518
		c0.18-0.179,0.367-0.353,0.569-0.518c0.719-0.586,1.503-1.001,2.296-1.274c-0.013-2.335,1.602-7.153,3.023-9.086
		C107.984,16.881,108.162,16.617,107.749,16.399"/>
	<path clip-path="url(#SVGID_2_)" fill="#006EB7" d="M112.227,17.217c-3.53,1.98-5.381,6.4-5.665,8.818
		c1.246-0.042,2.399,0.339,3.226,1.176c2.247-1.592,6.804-3.473,9.005-3.693c0.485-0.049,0.797-0.094,0.813-0.571
		C119.711,19.725,114.178,17.228,112.227,17.217"/>
	<path clip-path="url(#SVGID_2_)" fill="#006EB7" d="M120.833,27.399c-0.035-0.02-0.063-0.036-0.098-0.055
		c-3.653-1.492-8.675,0.423-8.675,0.423s-0.83,0.321-1.632,0.813c0.399,0.954,0.459,2.087,0.182,3.233
		c2.378,0.285,6.556,2.366,7.921,3.925c0.285,0.326,0.48,0.525,0.871,0.163C122.043,33.46,121.337,27.917,120.833,27.399"/>
	<path clip-path="url(#SVGID_2_)" fill="#006EB7" d="M117.01,40.287c-0.632-3.947-4.697-6.398-4.697-6.398s-1.017-0.611-2.036-0.797
		c-0.313,0.583-0.713,1.147-1.209,1.664c-0.277,0.289-0.571,0.546-0.875,0.78c1.058,1.877,1.544,7.011,0.948,9.336
		c-0.12,0.466-0.182,0.765,0.305,0.797c3.293,0.214,7.405-4.487,7.569-5.265C117.013,40.363,117.011,40.328,117.01,40.287"/>
	<path clip-path="url(#SVGID_2_)" fill="#006EB7" d="M106.709,36.095c-1.076,0.556-2.208,0.781-3.251,0.658
		c-1.277,2.321-4.849,6.131-6.888,7.345c-0.437,0.261-0.711,0.439-0.498,0.841c1.443,2.71,7.279,2.331,7.991,1.869
		c0.033-0.033,0.06-0.06,0.092-0.093c2.896-3.477,2.892-8.479,2.892-8.479S107.043,37.02,106.709,36.095"/>
	<path clip-path="url(#SVGID_2_)" fill="#006EB7" d="M101.108,35.664c-0.523-0.511-0.865-1.149-1.043-1.852
		c-2.522,0.715-7.394,0.73-9.384,0.029c-0.426-0.15-0.705-0.233-0.931,0.23c-1.526,3.127,1.617,7.413,2.341,7.63
		c0.043,0.001,0.079,0.003,0.121,0.004c4.26-0.299,8.365-3.989,8.365-3.989s0.743-0.67,1.331-1.46
		C101.62,36.096,101.35,35.899,101.108,35.664"/>
</g>
</svg>
