<?xml version="1.0" encoding="utf-8"?>
<!-- Generator: Adobe Illustrator 15.1.0, SVG Export Plug-In . SVG Version: 6.00 Build 0)  -->
<!DOCTYPE svg PUBLIC "-//W3C//DTD SVG 1.1//EN" "http://www.w3.org/Graphics/SVG/1.1/DTD/svg11.dtd">
<svg version="1.1" id="Layer_1" xmlns="http://www.w3.org/2000/svg" xmlns:xlink="http://www.w3.org/1999/xlink" x="0px" y="0px"
	 width="256px" height="68.5px" viewBox="0 0 256 68.5" enable-background="new 0 0 256 68.5" xml:space="preserve">
<polygon fill="#7B838D" points="18.999,48.601 27.383,48.601 26.69,50.341 20.288,50.341 19.073,53.357 25.007,53.357 
	24.349,55.001 18.398,55.001 17.05,58.371 23.501,58.371 22.807,60.113 14.374,60.113 "/>
<g>
	<defs>
		<rect id="SVGID_1_" width="256" height="68.5"/>
	</defs>
	<clipPath id="SVGID_2_">
		<use xlink:href="#SVGID_1_"  overflow="visible"/>
	</clipPath>
	<path clip-path="url(#SVGID_2_)" fill="#7B838D" d="M27.951,53.146h-1.37l0.54-1.369h1.371c0.19-0.484,0.377-0.921,0.56-1.307
		c0.183-0.388,0.403-0.72,0.662-1c0.258-0.28,0.574-0.495,0.947-0.645c0.374-0.15,0.84-0.227,1.399-0.227
		c0.247,0,0.481,0.014,0.702,0.041c0.22,0.026,0.436,0.05,0.647,0.072l-0.579,1.403c-0.175-0.043-0.407-0.065-0.697-0.065
		c-0.312,0-0.56,0.044-0.743,0.129c-0.184,0.086-0.336,0.208-0.457,0.363c-0.122,0.156-0.225,0.339-0.309,0.548
		c-0.084,0.21-0.181,0.438-0.294,0.687h1.613l-0.541,1.369H29.79l-2.806,6.968h-1.839L27.951,53.146z"/>
	<path clip-path="url(#SVGID_2_)" fill="#7B838D" d="M34.336,53.146h-1.37l0.54-1.369h1.371c0.19-0.484,0.377-0.921,0.56-1.307
		c0.183-0.388,0.403-0.72,0.662-1c0.258-0.28,0.574-0.495,0.947-0.645c0.374-0.15,0.84-0.227,1.399-0.227
		c0.247,0,0.481,0.014,0.702,0.041c0.22,0.026,0.436,0.05,0.647,0.072l-0.579,1.403c-0.175-0.043-0.407-0.065-0.697-0.065
		c-0.312,0-0.56,0.044-0.743,0.129c-0.184,0.086-0.336,0.208-0.457,0.363c-0.122,0.156-0.225,0.339-0.309,0.548
		c-0.084,0.21-0.181,0.438-0.294,0.687h1.613l-0.541,1.369h-1.612l-2.806,6.968H31.53L34.336,53.146z"/>
	<path clip-path="url(#SVGID_2_)" fill="#7B838D" d="M40.167,51.777h1.839l-3.347,8.336H36.82L40.167,51.777z M41.445,48.601h1.822
		l-0.693,1.74h-1.823L41.445,48.601z"/>
	<path clip-path="url(#SVGID_2_)" fill="#7B838D" d="M48.29,54.534c0.122-0.516,0.056-0.899-0.195-1.152
		c-0.252-0.253-0.636-0.38-1.152-0.38c-0.462,0-0.889,0.118-1.278,0.354c-0.391,0.237-0.734,0.538-1.031,0.903
		c-0.296,0.366-0.544,0.767-0.741,1.201c-0.198,0.436-0.335,0.853-0.412,1.251c-0.061,0.311-0.084,0.599-0.071,0.861
		c0.013,0.265,0.073,0.492,0.181,0.686c0.108,0.194,0.269,0.348,0.483,0.461c0.214,0.111,0.494,0.168,0.838,0.168
		c0.548,0,1.025-0.146,1.431-0.435c0.406-0.291,0.734-0.693,0.985-1.21h1.838c-0.51,1.075-1.167,1.86-1.973,2.354
		c-0.806,0.495-1.762,0.742-2.869,0.742c-0.549,0-1.016-0.086-1.402-0.259c-0.385-0.172-0.69-0.417-0.913-0.733
		c-0.224-0.317-0.368-0.693-0.434-1.129s-0.048-0.916,0.055-1.443c0.135-0.699,0.373-1.365,0.711-2
		c0.338-0.634,0.758-1.189,1.26-1.669c0.501-0.477,1.072-0.855,1.712-1.136c0.641-0.28,1.332-0.419,2.073-0.419
		c0.462,0,0.885,0.063,1.269,0.192c0.383,0.129,0.701,0.317,0.954,0.564c0.253,0.248,0.429,0.559,0.528,0.936
		c0.099,0.376,0.096,0.807-0.009,1.29H48.29z"/>
	<path clip-path="url(#SVGID_2_)" fill="#7B838D" d="M53.212,51.777h1.839l-3.347,8.336h-1.838L53.212,51.777z M54.491,48.601h1.822
		l-0.693,1.74h-1.823L54.491,48.601z"/>
	<path clip-path="url(#SVGID_2_)" fill="#7B838D" d="M62.574,57.533c-0.48,0.979-1.108,1.69-1.883,2.137
		c-0.774,0.446-1.667,0.67-2.677,0.67c-0.528,0-0.998-0.083-1.411-0.251c-0.414-0.166-0.752-0.407-1.012-0.726
		c-0.261-0.316-0.44-0.698-0.536-1.145c-0.096-0.446-0.088-0.954,0.023-1.524c0.125-0.645,0.349-1.273,0.673-1.886
		c0.323-0.614,0.728-1.161,1.214-1.645c0.487-0.484,1.046-0.873,1.679-1.171c0.632-0.295,1.32-0.441,2.062-0.441
		c0.741,0,1.319,0.123,1.733,0.37c0.415,0.247,0.714,0.56,0.899,0.936c0.185,0.376,0.279,0.79,0.283,1.241
		c0.003,0.452-0.034,0.882-0.114,1.29c-0.039,0.204-0.087,0.393-0.142,0.564c-0.055,0.172-0.107,0.328-0.155,0.468h-6.209
		c-0.021,0.054-0.038,0.102-0.052,0.145c-0.014,0.043-0.025,0.086-0.033,0.129l-0.05,0.258c-0.113,0.581-0.051,1.049,0.187,1.403
		c0.237,0.355,0.71,0.532,1.42,0.532c0.495,0,0.941-0.113,1.34-0.338c0.399-0.227,0.706-0.565,0.923-1.017H62.574z M61.687,55.212
		c0.021-0.055,0.036-0.101,0.043-0.138c0.007-0.038,0.015-0.077,0.023-0.121l0.051-0.258c0.096-0.494,0.019-0.899-0.231-1.218
		c-0.251-0.317-0.65-0.476-1.198-0.476c-0.688,0-1.276,0.207-1.765,0.621c-0.489,0.413-0.888,0.942-1.196,1.589H61.687z"/>
	<path clip-path="url(#SVGID_2_)" fill="#7B838D" d="M66.677,51.777h1.726l-0.493,1.209l0.025,0.031
		c0.423-0.461,0.91-0.821,1.46-1.08c0.55-0.258,1.115-0.387,1.696-0.387c0.838,0,1.415,0.199,1.73,0.597
		c0.316,0.397,0.407,0.936,0.276,1.612c-0.03,0.151-0.069,0.322-0.117,0.518c-0.048,0.192-0.103,0.364-0.165,0.515l-2.147,5.322
		H68.83l2.064-5.146c0.059-0.139,0.115-0.272,0.167-0.403c0.052-0.128,0.089-0.252,0.113-0.37c0.012-0.064,0.029-0.163,0.05-0.299
		c0.02-0.134,0.006-0.269-0.043-0.402s-0.153-0.25-0.312-0.348c-0.158-0.096-0.404-0.145-0.737-0.145
		c-0.366,0-0.706,0.079-1.021,0.234c-0.316,0.155-0.608,0.347-0.877,0.571c-0.258,0.216-0.495,0.482-0.712,0.798
		c-0.218,0.318-0.398,0.649-0.54,0.992l-1.813,4.517h-1.838L66.677,51.777z"/>
	<path clip-path="url(#SVGID_2_)" fill="#7B838D" d="M80.589,54.534c0.122-0.516,0.056-0.899-0.195-1.152
		c-0.252-0.253-0.636-0.38-1.152-0.38c-0.462,0-0.889,0.118-1.278,0.354c-0.391,0.237-0.734,0.538-1.031,0.903
		c-0.296,0.366-0.544,0.767-0.741,1.201c-0.198,0.436-0.335,0.853-0.412,1.251c-0.061,0.311-0.084,0.599-0.071,0.861
		c0.013,0.265,0.073,0.492,0.181,0.686c0.108,0.194,0.268,0.348,0.483,0.461c0.214,0.111,0.494,0.168,0.838,0.168
		c0.548,0,1.025-0.146,1.431-0.435c0.406-0.291,0.734-0.693,0.985-1.21h1.838c-0.51,1.075-1.167,1.86-1.973,2.354
		c-0.806,0.495-1.762,0.742-2.869,0.742c-0.549,0-1.016-0.086-1.402-0.259c-0.385-0.172-0.69-0.417-0.913-0.733
		c-0.224-0.317-0.368-0.693-0.434-1.129c-0.066-0.436-0.048-0.916,0.055-1.443c0.135-0.699,0.373-1.365,0.711-2
		c0.338-0.634,0.758-1.189,1.26-1.669c0.501-0.477,1.072-0.855,1.712-1.136c0.641-0.28,1.332-0.419,2.073-0.419
		c0.462,0,0.885,0.063,1.269,0.192c0.383,0.129,0.701,0.317,0.954,0.564c0.253,0.248,0.429,0.559,0.528,0.936
		c0.099,0.376,0.096,0.807-0.009,1.29H80.589z"/>
	<path clip-path="url(#SVGID_2_)" fill="#7B838D" d="M84.447,51.777h1.935l-0.314,6.095H86.1l4.33-6.095h1.967l-6.444,8.595
		c-0.292,0.396-0.576,0.779-0.851,1.145c-0.276,0.365-0.573,0.69-0.891,0.976c-0.319,0.285-0.672,0.511-1.059,0.678
		c-0.388,0.166-0.839,0.25-1.355,0.25c-0.312,0-0.674-0.044-1.088-0.13l0.637-1.532c0.112,0.033,0.224,0.063,0.337,0.089
		c0.114,0.027,0.229,0.041,0.347,0.041c0.28,0,0.529-0.052,0.748-0.153c0.218-0.103,0.413-0.287,0.583-0.557l0.986-1.338
		L84.447,51.777z"/>
	<path clip-path="url(#SVGID_2_)" fill="#7B838D" d="M103.212,57.695c-0.061,0.149-0.125,0.295-0.19,0.435
		c-0.064,0.14-0.108,0.27-0.131,0.387c-0.023,0.119-0.014,0.21,0.027,0.275c0.041,0.063,0.137,0.096,0.288,0.096
		c0.108,0,0.217-0.013,0.33-0.04c0.113-0.026,0.224-0.046,0.334-0.056l-0.548,1.322c-0.247,0.053-0.493,0.104-0.739,0.152
		c-0.246,0.049-0.493,0.072-0.74,0.072c-0.312,0-0.551-0.097-0.717-0.29c-0.167-0.193-0.229-0.452-0.188-0.773
		c-0.437,0.364-0.919,0.635-1.447,0.806c-0.528,0.173-1.05,0.258-1.566,0.258c-0.344,0-0.663-0.048-0.955-0.145
		c-0.294-0.097-0.543-0.236-0.75-0.419c-0.206-0.184-0.352-0.414-0.437-0.694c-0.086-0.279-0.093-0.603-0.022-0.967
		c0.1-0.517,0.281-0.949,0.543-1.298c0.261-0.351,0.575-0.638,0.941-0.862c0.367-0.228,0.77-0.394,1.21-0.501
		c0.44-0.108,0.895-0.178,1.363-0.209c0.632-0.043,1.255-0.092,1.867-0.146c0.337-0.021,0.603-0.132,0.798-0.331
		c0.194-0.198,0.322-0.453,0.383-0.766c0.077-0.398-0.011-0.663-0.264-0.798c-0.254-0.135-0.569-0.202-0.945-0.202
		c-0.516,0-0.977,0.089-1.382,0.267c-0.405,0.177-0.723,0.524-0.952,1.039h-1.742c0.197-0.515,0.448-0.947,0.753-1.298
		c0.304-0.349,0.65-0.634,1.037-0.854c0.386-0.222,0.806-0.377,1.259-0.468c0.454-0.092,0.927-0.138,1.422-0.138
		c0.752,0,1.327,0.073,1.724,0.217c0.396,0.146,0.674,0.32,0.833,0.524c0.159,0.205,0.239,0.417,0.239,0.638
		s-0.014,0.406-0.043,0.556c-0.072,0.365-0.207,0.786-0.406,1.259L103.212,57.695z M97.656,57.824
		c-0.04,0.204-0.027,0.374,0.038,0.507c0.066,0.135,0.16,0.243,0.284,0.323c0.124,0.081,0.268,0.14,0.434,0.178
		c0.164,0.037,0.332,0.056,0.504,0.056c0.452,0,0.846-0.074,1.181-0.226c0.336-0.15,0.628-0.354,0.877-0.612
		s0.464-0.562,0.645-0.912c0.181-0.349,0.342-0.723,0.484-1.121l-0.026-0.031c-0.154,0.129-0.344,0.22-0.569,0.274
		c-0.226,0.054-0.443,0.091-0.651,0.113c-0.263,0.021-0.565,0.042-0.908,0.063c-0.343,0.021-0.671,0.078-0.984,0.17
		c-0.314,0.092-0.593,0.23-0.839,0.419C97.879,57.213,97.723,57.48,97.656,57.824"/>
	<path clip-path="url(#SVGID_2_)" fill="#7B838D" d="M107.942,51.777h1.726l-0.493,1.209l0.025,0.031
		c0.423-0.461,0.91-0.821,1.46-1.08c0.55-0.258,1.115-0.387,1.696-0.387c0.838,0,1.415,0.199,1.73,0.597
		c0.316,0.397,0.407,0.936,0.276,1.612c-0.03,0.151-0.069,0.322-0.117,0.518c-0.048,0.192-0.103,0.364-0.165,0.515l-2.147,5.322
		h-1.838l2.064-5.146c0.06-0.139,0.115-0.272,0.167-0.403c0.052-0.128,0.09-0.252,0.113-0.37c0.012-0.064,0.029-0.163,0.05-0.299
		c0.02-0.134,0.006-0.269-0.043-0.402c-0.049-0.134-0.153-0.25-0.311-0.348c-0.159-0.096-0.405-0.145-0.738-0.145
		c-0.366,0-0.706,0.079-1.021,0.234c-0.316,0.155-0.608,0.347-0.877,0.571c-0.258,0.216-0.495,0.482-0.712,0.798
		c-0.218,0.318-0.398,0.649-0.54,0.992l-1.813,4.517h-1.838L107.942,51.777z"/>
	<path clip-path="url(#SVGID_2_)" fill="#7B838D" d="M121.296,60.113h-1.757l0.477-1.129l-0.026-0.031
		c-0.47,0.536-0.944,0.902-1.422,1.096c-0.479,0.194-0.966,0.291-1.46,0.291c-0.236,0-0.531-0.033-0.884-0.097
		c-0.353-0.064-0.682-0.213-0.986-0.443c-0.304-0.232-0.536-0.573-0.696-1.025c-0.16-0.451-0.163-1.068-0.01-1.854
		c0.131-0.678,0.361-1.335,0.69-1.976c0.328-0.64,0.736-1.213,1.221-1.717c0.485-0.506,1.037-0.912,1.656-1.218
		c0.618-0.306,1.287-0.46,2.007-0.46c0.559,0,1.045,0.103,1.457,0.307s0.676,0.56,0.793,1.064h0.032l1.759-4.321h1.839
		L121.296,60.113z M121.5,55.002c0.052-0.27,0.067-0.527,0.046-0.774c-0.023-0.247-0.088-0.46-0.199-0.637
		c-0.111-0.177-0.274-0.319-0.49-0.427c-0.215-0.108-0.484-0.162-0.806-0.162c-0.517,0-0.98,0.116-1.39,0.347
		c-0.411,0.231-0.771,0.535-1.081,0.911c-0.309,0.376-0.566,0.799-0.77,1.266c-0.204,0.469-0.35,0.934-0.44,1.396
		c-0.121,0.623-0.06,1.106,0.185,1.451c0.245,0.345,0.691,0.516,1.335,0.516c0.473,0,0.911-0.123,1.314-0.371
		c0.403-0.246,0.763-0.561,1.079-0.943c0.316-0.381,0.577-0.8,0.784-1.258C121.274,55.858,121.419,55.421,121.5,55.002"/>
	<path clip-path="url(#SVGID_2_)" fill="#7B838D" d="M133.989,48.601h4.628c0.602,0,1.096,0.062,1.481,0.186
		c0.384,0.123,0.69,0.283,0.921,0.482c0.229,0.199,0.393,0.425,0.488,0.678c0.098,0.252,0.152,0.508,0.166,0.766
		c0.016,0.259,0.003,0.511-0.033,0.758c-0.038,0.248-0.074,0.463-0.11,0.646c-0.002,0.011-0.028,0.107-0.08,0.29
		c-0.052,0.184-0.144,0.405-0.275,0.669c-0.132,0.265-0.313,0.549-0.545,0.854c-0.231,0.307-0.529,0.592-0.892,0.855
		c-0.363,0.263-0.801,0.48-1.313,0.653c-0.512,0.171-1.116,0.258-1.814,0.258h-3.451l-1.779,4.418h-2.015L133.989,48.601z
		 M133.817,54.051h3.048c0.451,0,0.838-0.067,1.16-0.202c0.32-0.134,0.586-0.309,0.795-0.524c0.208-0.215,0.373-0.453,0.494-0.718
		c0.121-0.263,0.207-0.523,0.257-0.782c0.031-0.16,0.041-0.332,0.028-0.516c-0.014-0.183-0.071-0.354-0.175-0.516
		c-0.103-0.161-0.271-0.292-0.504-0.396c-0.231-0.102-0.553-0.152-0.962-0.152h-2.611L133.817,54.051z"/>
	<path clip-path="url(#SVGID_2_)" fill="#7B838D" d="M148.686,57.533c-0.48,0.979-1.108,1.69-1.884,2.137
		c-0.773,0.446-1.667,0.67-2.677,0.67c-0.527,0-0.998-0.083-1.411-0.251c-0.414-0.166-0.752-0.407-1.012-0.726
		c-0.261-0.316-0.44-0.698-0.536-1.145s-0.088-0.954,0.023-1.524c0.125-0.645,0.349-1.273,0.673-1.886
		c0.323-0.614,0.728-1.161,1.214-1.645c0.487-0.484,1.046-0.873,1.679-1.171c0.632-0.295,1.32-0.441,2.062-0.441
		c0.741,0,1.318,0.123,1.732,0.37c0.415,0.247,0.715,0.56,0.899,0.936s0.279,0.79,0.283,1.241c0.003,0.452-0.034,0.882-0.114,1.29
		c-0.039,0.204-0.087,0.393-0.142,0.564c-0.056,0.172-0.107,0.328-0.155,0.468h-6.209c-0.021,0.054-0.038,0.102-0.052,0.145
		c-0.015,0.043-0.025,0.086-0.033,0.129l-0.05,0.258c-0.113,0.581-0.052,1.049,0.187,1.403c0.237,0.355,0.71,0.532,1.42,0.532
		c0.495,0,0.941-0.113,1.34-0.338c0.399-0.227,0.706-0.565,0.924-1.017H148.686z M147.798,55.212
		c0.021-0.055,0.036-0.101,0.043-0.138c0.008-0.038,0.016-0.077,0.023-0.121l0.051-0.258c0.096-0.494,0.02-0.899-0.23-1.218
		c-0.251-0.317-0.65-0.476-1.198-0.476c-0.688,0-1.276,0.207-1.766,0.621c-0.488,0.413-0.888,0.942-1.195,1.589H147.798z"/>
	<path clip-path="url(#SVGID_2_)" fill="#7B838D" d="M152.788,51.777h1.74l-0.654,1.628l0.025,0.032
		c0.174-0.226,0.376-0.451,0.608-0.678c0.232-0.225,0.478-0.427,0.738-0.604c0.26-0.179,0.532-0.323,0.818-0.437
		c0.285-0.113,0.573-0.169,0.863-0.169c0.15,0,0.298,0.003,0.442,0.008c0.144,0.005,0.289,0.02,0.435,0.04l-0.728,1.758
		c-0.104-0.021-0.208-0.037-0.313-0.048s-0.212-0.017-0.32-0.017c-0.473,0-0.899,0.084-1.281,0.251
		c-0.383,0.167-0.723,0.395-1.021,0.685s-0.56,0.623-0.783,1c-0.224,0.376-0.419,0.774-0.587,1.193l-1.492,3.693h-1.838
		L152.788,51.777z"/>
	<path clip-path="url(#SVGID_2_)" fill="#7B838D" d="M160.036,53.146h-1.37l0.54-1.369h1.371c0.19-0.484,0.377-0.921,0.56-1.307
		c0.184-0.388,0.403-0.72,0.662-1s0.574-0.495,0.947-0.645c0.374-0.15,0.84-0.227,1.399-0.227c0.247,0,0.48,0.014,0.702,0.041
		c0.22,0.026,0.436,0.05,0.646,0.072l-0.579,1.403c-0.175-0.043-0.407-0.065-0.697-0.065c-0.312,0-0.56,0.044-0.742,0.129
		c-0.185,0.086-0.336,0.208-0.457,0.363c-0.122,0.156-0.226,0.339-0.31,0.548c-0.084,0.21-0.181,0.438-0.294,0.687h1.613
		l-0.541,1.369h-1.612l-2.806,6.968h-1.839L160.036,53.146z"/>
	<path clip-path="url(#SVGID_2_)" fill="#7B838D" d="M166.278,60.34c-1.16,0-1.998-0.314-2.51-0.944
		c-0.512-0.629-0.654-1.528-0.426-2.701c0.134-0.688,0.373-1.34,0.72-1.959c0.346-0.618,0.771-1.164,1.277-1.637
		c0.506-0.472,1.078-0.849,1.719-1.128c0.64-0.28,1.32-0.42,2.041-0.42c1.161,0,1.999,0.304,2.516,0.911
		c0.517,0.606,0.661,1.497,0.434,2.669c-0.143,0.73-0.383,1.413-0.721,2.048c-0.34,0.635-0.761,1.185-1.266,1.653
		c-0.505,0.467-1.076,0.836-1.714,1.104C167.711,60.205,167.021,60.34,166.278,60.34 M168.705,53.002
		c-0.474,0-0.908,0.119-1.304,0.354c-0.395,0.236-0.746,0.535-1.052,0.896c-0.307,0.36-0.559,0.76-0.758,1.201
		c-0.199,0.44-0.338,0.87-0.42,1.291c-0.119,0.611-0.065,1.123,0.161,1.531c0.228,0.408,0.675,0.612,1.341,0.612
		c0.473,0,0.907-0.115,1.301-0.346c0.395-0.231,0.745-0.527,1.051-0.888c0.307-0.359,0.561-0.763,0.76-1.209s0.341-0.88,0.422-1.299
		c0.119-0.611,0.064-1.123-0.162-1.532C169.817,53.207,169.372,53.002,168.705,53.002"/>
	<path clip-path="url(#SVGID_2_)" fill="#7B838D" d="M175.315,51.777h1.74l-0.654,1.628l0.025,0.032
		c0.173-0.226,0.376-0.451,0.608-0.678c0.231-0.225,0.478-0.427,0.738-0.604c0.26-0.179,0.532-0.323,0.818-0.437
		c0.285-0.113,0.573-0.169,0.863-0.169c0.15,0,0.298,0.003,0.442,0.008c0.144,0.005,0.288,0.02,0.435,0.04l-0.729,1.758
		c-0.104-0.021-0.207-0.037-0.312-0.048c-0.106-0.011-0.212-0.017-0.32-0.017c-0.473,0-0.899,0.084-1.281,0.251
		c-0.383,0.167-0.723,0.395-1.021,0.685s-0.56,0.623-0.783,1c-0.224,0.376-0.419,0.774-0.587,1.193l-1.492,3.693h-1.838
		L175.315,51.777z"/>
	<path clip-path="url(#SVGID_2_)" fill="#7B838D" d="M182.685,51.777h1.742l-0.472,1.177l0.026,0.032
		c0.432-0.451,0.917-0.804,1.455-1.057s1.098-0.379,1.678-0.379c0.517,0,0.946,0.111,1.291,0.33
		c0.344,0.221,0.522,0.606,0.533,1.153c0.46-0.43,0.948-0.784,1.465-1.064s1.065-0.419,1.646-0.419c0.806,0,1.363,0.199,1.674,0.597
		c0.309,0.397,0.398,0.936,0.267,1.612c-0.028,0.151-0.076,0.322-0.141,0.518c-0.064,0.192-0.128,0.364-0.189,0.515l-2.098,5.322
		h-1.839l1.992-4.936c0.039-0.097,0.096-0.232,0.168-0.411c0.071-0.177,0.133-0.368,0.184-0.572c0.027-0.14,0.041-0.282,0.043-0.428
		c0.001-0.145-0.031-0.273-0.095-0.386c-0.064-0.113-0.164-0.205-0.301-0.275c-0.138-0.068-0.324-0.104-0.561-0.104
		c-0.354,0-0.683,0.072-0.985,0.218s-0.574,0.328-0.816,0.548c-0.242,0.222-0.45,0.462-0.625,0.726
		c-0.175,0.265-0.307,0.514-0.396,0.751l-1.962,4.87h-1.838l1.841-4.58c0.085-0.215,0.184-0.457,0.294-0.727
		c0.112-0.268,0.192-0.525,0.24-0.773c0.055-0.279,0.028-0.521-0.077-0.726c-0.104-0.205-0.352-0.307-0.737-0.307
		c-0.355,0-0.672,0.065-0.949,0.194c-0.278,0.129-0.526,0.283-0.744,0.467c-0.219,0.183-0.452,0.418-0.701,0.702
		s-0.442,0.594-0.583,0.927l-1.938,4.822h-1.838L182.685,51.777z"/>
	<path clip-path="url(#SVGID_2_)" fill="#7B838D" d="M201.771,57.695c-0.061,0.149-0.125,0.295-0.189,0.435s-0.108,0.27-0.131,0.387
		c-0.023,0.119-0.015,0.21,0.026,0.275c0.041,0.063,0.137,0.096,0.288,0.096c0.108,0,0.217-0.013,0.33-0.04
		c0.113-0.026,0.224-0.046,0.334-0.056l-0.548,1.322c-0.247,0.053-0.493,0.104-0.739,0.152c-0.246,0.049-0.493,0.072-0.74,0.072
		c-0.312,0-0.551-0.097-0.717-0.29c-0.167-0.193-0.229-0.452-0.188-0.773c-0.438,0.364-0.919,0.635-1.447,0.806
		c-0.528,0.173-1.05,0.258-1.566,0.258c-0.344,0-0.663-0.048-0.955-0.145c-0.294-0.097-0.543-0.236-0.75-0.419
		c-0.206-0.184-0.352-0.414-0.437-0.694c-0.086-0.279-0.093-0.603-0.022-0.967c0.101-0.517,0.281-0.949,0.543-1.298
		c0.262-0.351,0.575-0.638,0.941-0.862c0.367-0.228,0.77-0.394,1.21-0.501c0.44-0.108,0.896-0.178,1.363-0.209
		c0.632-0.043,1.255-0.092,1.867-0.146c0.337-0.021,0.603-0.132,0.798-0.331c0.193-0.198,0.321-0.453,0.383-0.766
		c0.077-0.398-0.011-0.663-0.264-0.798c-0.255-0.135-0.569-0.202-0.945-0.202c-0.516,0-0.978,0.089-1.382,0.267
		c-0.405,0.177-0.724,0.524-0.952,1.039h-1.742c0.197-0.515,0.448-0.947,0.753-1.298c0.304-0.349,0.65-0.634,1.037-0.854
		c0.386-0.222,0.806-0.377,1.259-0.468c0.454-0.092,0.927-0.138,1.422-0.138c0.752,0,1.327,0.073,1.725,0.217
		c0.396,0.146,0.674,0.32,0.833,0.524c0.159,0.205,0.238,0.417,0.238,0.638s-0.014,0.406-0.043,0.556
		c-0.071,0.365-0.207,0.786-0.405,1.259L201.771,57.695z M196.216,57.824c-0.04,0.204-0.027,0.374,0.038,0.507
		c0.065,0.135,0.16,0.243,0.284,0.323c0.124,0.081,0.268,0.14,0.434,0.178c0.164,0.037,0.332,0.056,0.504,0.056
		c0.452,0,0.846-0.074,1.181-0.226c0.337-0.15,0.629-0.354,0.877-0.612c0.249-0.258,0.465-0.562,0.646-0.912
		c0.181-0.349,0.342-0.723,0.484-1.121l-0.026-0.031c-0.154,0.129-0.344,0.22-0.569,0.274c-0.226,0.054-0.442,0.091-0.65,0.113
		c-0.264,0.021-0.565,0.042-0.908,0.063s-0.671,0.078-0.984,0.17s-0.593,0.23-0.839,0.419
		C196.438,57.213,196.282,57.48,196.216,57.824"/>
	<path clip-path="url(#SVGID_2_)" fill="#7B838D" d="M207.169,51.777h1.726l-0.493,1.209l0.025,0.031
		c0.423-0.461,0.91-0.821,1.46-1.08c0.55-0.258,1.115-0.387,1.696-0.387c0.838,0,1.415,0.199,1.729,0.597
		c0.316,0.397,0.407,0.936,0.276,1.612c-0.03,0.151-0.069,0.322-0.117,0.518c-0.048,0.192-0.103,0.364-0.165,0.515l-2.146,5.322
		h-1.838l2.063-5.146c0.06-0.139,0.115-0.272,0.167-0.403c0.052-0.128,0.09-0.252,0.113-0.37c0.012-0.064,0.028-0.163,0.05-0.299
		c0.02-0.134,0.006-0.269-0.043-0.402s-0.153-0.25-0.312-0.348c-0.158-0.096-0.404-0.145-0.737-0.145
		c-0.366,0-0.706,0.079-1.021,0.234s-0.607,0.347-0.877,0.571c-0.258,0.216-0.495,0.482-0.712,0.798
		c-0.218,0.318-0.397,0.649-0.54,0.992l-1.812,4.517h-1.838L207.169,51.777z"/>
	<path clip-path="url(#SVGID_2_)" fill="#7B838D" d="M220.816,54.534c0.122-0.516,0.056-0.899-0.195-1.152
		c-0.252-0.253-0.636-0.38-1.152-0.38c-0.462,0-0.889,0.118-1.277,0.354c-0.392,0.237-0.734,0.538-1.031,0.903
		c-0.296,0.366-0.544,0.767-0.741,1.201c-0.198,0.436-0.335,0.853-0.412,1.251c-0.061,0.311-0.084,0.599-0.07,0.861
		c0.013,0.265,0.072,0.492,0.181,0.686c0.107,0.194,0.269,0.348,0.482,0.461c0.215,0.111,0.494,0.168,0.839,0.168
		c0.548,0,1.024-0.146,1.431-0.435c0.406-0.291,0.734-0.693,0.985-1.21h1.838c-0.511,1.075-1.167,1.86-1.974,2.354
		c-0.806,0.495-1.762,0.742-2.869,0.742c-0.549,0-1.016-0.086-1.401-0.259c-0.385-0.172-0.69-0.417-0.913-0.733
		c-0.224-0.317-0.368-0.693-0.434-1.129c-0.066-0.436-0.049-0.916,0.055-1.443c0.135-0.699,0.373-1.365,0.711-2
		c0.338-0.634,0.758-1.189,1.26-1.669c0.501-0.477,1.072-0.855,1.712-1.136c0.642-0.28,1.332-0.419,2.073-0.419
		c0.462,0,0.885,0.063,1.269,0.192s0.701,0.317,0.954,0.564c0.253,0.248,0.43,0.559,0.529,0.936c0.098,0.376,0.095,0.807-0.009,1.29
		H220.816z"/>
	<path clip-path="url(#SVGID_2_)" fill="#7B838D" d="M230.737,57.533c-0.48,0.979-1.109,1.69-1.884,2.137
		c-0.773,0.446-1.667,0.67-2.678,0.67c-0.527,0-0.997-0.083-1.411-0.251c-0.413-0.166-0.751-0.407-1.012-0.726
		c-0.261-0.316-0.439-0.698-0.535-1.145s-0.089-0.954,0.022-1.524c0.125-0.645,0.35-1.273,0.674-1.886
		c0.323-0.614,0.727-1.161,1.214-1.645c0.486-0.484,1.046-0.873,1.678-1.171c0.633-0.295,1.32-0.441,2.062-0.441
		s1.319,0.123,1.733,0.37s0.714,0.56,0.899,0.936c0.185,0.376,0.279,0.79,0.283,1.241c0.003,0.452-0.035,0.882-0.114,1.29
		c-0.04,0.204-0.087,0.393-0.143,0.564c-0.055,0.172-0.106,0.328-0.154,0.468h-6.209c-0.021,0.054-0.039,0.102-0.052,0.145
		c-0.016,0.043-0.025,0.086-0.033,0.129l-0.05,0.258c-0.113,0.581-0.052,1.049,0.186,1.403c0.238,0.355,0.711,0.532,1.421,0.532
		c0.494,0,0.94-0.113,1.34-0.338c0.398-0.227,0.706-0.565,0.922-1.017H230.737z M229.85,55.212c0.021-0.055,0.035-0.101,0.042-0.138
		c0.008-0.038,0.017-0.077,0.024-0.121l0.05-0.258c0.096-0.494,0.02-0.899-0.229-1.218c-0.251-0.317-0.65-0.476-1.198-0.476
		c-0.689,0-1.277,0.207-1.767,0.621c-0.488,0.413-0.887,0.942-1.195,1.589H229.85z"/>
	<path clip-path="url(#SVGID_2_)" fill="#006EB7" d="M8.833,43.402L8.833,43.402c-0.001-0.413,0.334-0.751,0.748-0.751
		l228.012-0.496c0.414-0.002,0.751,0.334,0.752,0.747c0.001,0.414-0.334,0.751-0.749,0.753L9.584,44.151
		C9.169,44.151,8.833,43.816,8.833,43.402"/>
	<path clip-path="url(#SVGID_2_)" fill="#006EB7" d="M53.592,32.95H31.834L60.606,5.581H25.684l-6.259,5.8h19.777L10.451,38.847
		h41.754c0.721,0,1.401-0.394,2.071-1.114c0.655-0.756,1.006-1.536,1.076-2.402c0.037-0.691-0.115-1.266-0.452-1.72
		C54.587,33.158,54.153,32.95,53.592,32.95"/>
	<path clip-path="url(#SVGID_2_)" fill="#006EB7" d="M139.847,26.785l1.95-4.94h17.182l1.448-3.693h-20.859l-8.272,20.843h3.671
		l3.406-8.549h17.183l1.448-3.661H139.847z M172.787,18.152l-20.329,20.843h4.225l3.545-3.589h14.938l0.724,3.589h4.195
		l-3.763-20.843H172.787z M163.825,31.715l9.003-9.274l1.694,9.274H163.825z M204.771,33.555l-10.243-15.403h-3.308l-8.313,20.843
		h3.704l6.097-15.336l10.238,15.336h3.349l8.246-20.843h-3.706L204.771,33.555z M229.435,21.823c2.961,0,4.82,0.054,5.659,0.166
		c2.403,0.311,3.605,1.077,3.62,2.312l3.88-0.876c0.304-2.36-0.89-3.904-3.456-4.646c-1.378-0.412-3.82-0.627-7.309-0.627
		c-3.599,0-6.369,0.265-8.379,0.775c-3.555,0.921-5.892,2.706-6.952,5.374c-1.633,4.111,1.663,6.145,9.792,6.145
		c2.807,0,4.643,0.034,5.539,0.15c2.725,0.377,3.849,1.132,3.365,2.317c-0.641,1.639-3.72,2.493-9.216,2.493
		c-2.915,0-4.733-0.065-5.601-0.202c-2.391-0.303-3.632-1.067-3.708-2.246l-3.959,0.969c-0.181,2.189,0.938,3.672,3.318,4.434
		c1.392,0.405,3.743,0.634,6.851,0.634c3.923,0,6.808-0.209,8.703-0.599c3.785-0.89,6.195-2.725,7.306-5.483
		c1.604-4.059-1.709-6.128-10.022-6.128c-2.674,0-4.503-0.085-5.431-0.191c-2.659-0.303-3.736-1.111-3.259-2.293
		C220.859,22.646,223.953,21.823,229.435,21.823"/>
	<path clip-path="url(#SVGID_2_)" fill="#006EB7" d="M246.511,20.305v2.374h-0.516v-2.374h-0.867v-0.506h2.258v0.506H246.511z
		 M250.63,22.679v-2.243h-0.03l-0.845,2.243h-0.353l-0.851-2.243h-0.061v2.243h-0.483v-2.88h0.782l0.807,2.127l0.811-2.127h0.776
		v2.88H250.63z"/>
	<path clip-path="url(#SVGID_2_)" fill="#006EB7" d="M61.788,12.586c-0.119-0.464-0.211-0.755-0.741-0.549
		c-3.585,1.391-5.449,7.462-5.213,8.219c0.024,0.035,0.044,0.065,0.068,0.1c2.741,3.14,8.316,3.331,8.316,3.331
		s1.131,0.033,2.213-0.198c0.056-1.095,0.438-2.242,1.119-3.3C65.448,18.948,62.368,14.847,61.788,12.586"/>
	<path clip-path="url(#SVGID_2_)" fill="#006EB7" d="M74.922,6.126c-3.02-1.592-9.006,1.6-9.508,2.343
		c-0.017,0.043-0.031,0.08-0.047,0.124c-1.162,4.377,1.59,8.623,1.59,8.623s0.667,1.021,1.525,1.643
		c0.194-0.193,0.397-0.382,0.615-0.56c0.779-0.635,1.627-1.084,2.485-1.379c-0.014-2.528,1.734-7.743,3.274-9.836
		C75.176,6.648,75.37,6.362,74.922,6.126"/>
	<path clip-path="url(#SVGID_2_)" fill="#006EB7" d="M79.77,7.012c-3.821,2.143-5.825,6.928-6.132,9.545
		c1.349-0.045,2.597,0.367,3.492,1.272c2.432-1.722,7.365-3.758,9.747-3.997c0.526-0.052,0.863-0.101,0.88-0.617
		C87.872,9.727,81.882,7.023,79.77,7.012"/>
	<path clip-path="url(#SVGID_2_)" fill="#006EB7" d="M89.086,18.033c-0.037-0.021-0.069-0.038-0.106-0.059
		c-3.955-1.616-9.391,0.457-9.391,0.457s-0.898,0.348-1.766,0.881c0.432,1.032,0.497,2.258,0.198,3.499
		c2.573,0.309,7.095,2.562,8.573,4.249c0.309,0.353,0.519,0.568,0.943,0.177C90.395,24.594,89.631,18.593,89.086,18.033"/>
	<path clip-path="url(#SVGID_2_)" fill="#006EB7" d="M84.947,31.984c-0.684-4.272-5.084-6.926-5.084-6.926s-1.101-0.661-2.204-0.863
		c-0.339,0.632-0.772,1.242-1.308,1.802c-0.3,0.313-0.619,0.591-0.948,0.844c1.145,2.032,1.671,7.59,1.026,10.106
		c-0.129,0.504-0.197,0.829,0.331,0.862c3.565,0.232,8.015-4.856,8.193-5.7C84.951,32.066,84.949,32.029,84.947,31.984"/>
	<path clip-path="url(#SVGID_2_)" fill="#006EB7" d="M73.796,27.446c-1.165,0.602-2.39,0.846-3.519,0.713
		c-1.382,2.511-5.248,6.635-7.456,7.951c-0.473,0.282-0.77,0.476-0.539,0.909c1.562,2.935,7.879,2.524,8.65,2.023
		c0.035-0.035,0.065-0.065,0.1-0.101c3.134-3.764,3.13-9.178,3.13-9.178S74.159,28.448,73.796,27.446"/>
	<path clip-path="url(#SVGID_2_)" fill="#006EB7" d="M67.733,26.979c-0.566-0.553-0.936-1.243-1.129-2.004
		c-2.73,0.773-8.004,0.789-10.157,0.031c-0.461-0.162-0.764-0.252-1.008,0.249c-1.652,3.384,1.749,8.024,2.534,8.259
		c0.046,0.001,0.085,0.002,0.131,0.004c4.611-0.323,9.054-4.318,9.054-4.318s0.805-0.725,1.441-1.58
		C68.288,27.446,67.996,27.235,67.733,26.979"/>
	<path clip-path="url(#SVGID_2_)" fill="#006EB7" d="M97.546,12.586c-0.119-0.464-0.211-0.755-0.741-0.549
		c-3.585,1.391-5.449,7.462-5.212,8.219c0.023,0.035,0.043,0.065,0.067,0.1c2.741,3.14,8.316,3.331,8.316,3.331
		s1.131,0.033,2.213-0.198c0.056-1.095,0.438-2.242,1.119-3.3C101.208,18.948,98.127,14.847,97.546,12.586"/>
	<path clip-path="url(#SVGID_2_)" fill="#006EB7" d="M110.682,6.126c-3.02-1.592-9.006,1.6-9.508,2.343
		c-0.017,0.043-0.031,0.08-0.047,0.124c-1.162,4.377,1.59,8.623,1.59,8.623s0.667,1.021,1.525,1.643
		c0.194-0.193,0.397-0.382,0.615-0.56c0.779-0.635,1.627-1.084,2.485-1.379c-0.014-2.528,1.734-7.743,3.274-9.836
		C110.936,6.648,111.129,6.362,110.682,6.126"/>
	<path clip-path="url(#SVGID_2_)" fill="#006EB7" d="M115.529,7.012c-3.821,2.143-5.825,6.928-6.132,9.545
		c1.349-0.045,2.597,0.367,3.492,1.272c2.432-1.722,7.365-3.758,9.747-3.997c0.526-0.052,0.863-0.101,0.88-0.617
		C123.631,9.727,117.641,7.023,115.529,7.012"/>
	<path clip-path="url(#SVGID_2_)" fill="#006EB7" d="M124.845,18.033c-0.037-0.021-0.069-0.038-0.106-0.059
		c-3.955-1.616-9.391,0.457-9.391,0.457s-0.898,0.348-1.766,0.881c0.432,1.032,0.497,2.258,0.198,3.499
		c2.573,0.309,7.096,2.562,8.573,4.249c0.309,0.353,0.519,0.568,0.943,0.177C126.155,24.594,125.39,18.593,124.845,18.033"/>
	<path clip-path="url(#SVGID_2_)" fill="#006EB7" d="M120.706,31.984c-0.684-4.272-5.084-6.926-5.084-6.926
		s-1.101-0.661-2.204-0.863c-0.339,0.632-0.772,1.242-1.309,1.802c-0.299,0.313-0.618,0.591-0.947,0.844
		c1.145,2.032,1.671,7.59,1.026,10.106c-0.129,0.504-0.197,0.829,0.331,0.862c3.565,0.232,8.015-4.856,8.193-5.7
		C120.71,32.066,120.708,32.029,120.706,31.984"/>
	<path clip-path="url(#SVGID_2_)" fill="#006EB7" d="M109.556,27.446c-1.165,0.602-2.39,0.846-3.519,0.713
		c-1.382,2.511-5.248,6.635-7.456,7.951c-0.473,0.282-0.77,0.476-0.539,0.909c1.562,2.935,7.879,2.524,8.65,2.023
		c0.035-0.035,0.065-0.065,0.1-0.101c3.134-3.764,3.13-9.178,3.13-9.178S109.918,28.448,109.556,27.446"/>
	<path clip-path="url(#SVGID_2_)" fill="#006EB7" d="M103.493,26.979c-0.566-0.553-0.936-1.243-1.129-2.004
		c-2.73,0.773-8.004,0.789-10.157,0.031c-0.461-0.162-0.764-0.252-1.008,0.249c-1.652,3.384,1.749,8.024,2.534,8.259
		c0.046,0.001,0.085,0.002,0.131,0.004c4.611-0.323,9.054-4.318,9.054-4.318s0.805-0.725,1.441-1.58
		C104.047,27.446,103.755,27.235,103.493,26.979"/>
</g>
</svg>
